<svg xmlns="http://www.w3.org/2000/svg" width="84" height="84" viewBox="0 0 84 84">
    <g fill="#000" fill-rule="nonzero">
        <path d="M73.205 26.707c2.428-1.72 4.02-4.545 4.02-7.74 0-5.228-4.255-9.483-9.483-9.483-.942 0-1.85.142-2.71.4V0h-50.69L0 14.342v64.239h58.258c0 2.988 2.43 5.419 5.42 5.419 1.627 0 3.07-.734 4.064-1.872.994 1.138 2.437 1.872 4.064 1.872 2.99 0 5.42-2.43 5.42-5.42V52.84h2.032A4.747 4.747 0 0 0 84 48.097V42c0-7.047-4.513-13.043-10.795-15.293zm1.311-7.74a6.782 6.782 0 0 1-6.774 6.775 6.782 6.782 0 0 1-6.774-6.774 6.782 6.782 0 0 1 6.774-6.774 6.782 6.782 0 0 1 6.774 6.774zM13.548 4.626v8.923H4.625l8.923-8.923zM2.71 75.871V16.258h13.548V2.71h46.065v8.248h.364c-2.657 1.683-4.429 4.64-4.429 8.01 0 3.188 1.587 6.006 4.005 7.726a16.231 16.231 0 0 0-10.255 11.241H40.59c.033-.45.055-.902.055-1.354 0-9.712-7.901-17.613-17.613-17.613-9.711 0-17.613 7.901-17.613 17.613 0 9.711 7.902 17.613 17.613 17.613 4.791 0 9.366-1.979 12.68-5.42h22.546v27.097H2.71zm65.71-32.516c-1.885 0-3.503 1.114-4.267 2.71h-.476v-5.42h5.42a2.712 2.712 0 0 1 2.71 2.71h-3.388zm-7.452 2.71h-2.71v-5.42h2.71v5.42zm-5.42 0H33.871v-5.42h21.677v5.42zm-17.678-8.13h-5.675l-10.839 5.42 10.485 5.243a14.923 14.923 0 0 1-8.809 2.886c-8.217 0-14.903-6.686-14.903-14.903s6.686-14.904 14.903-14.904 14.903 6.687 14.903 14.904c0 .452-.024.905-.065 1.354zm-10.453 5.42l3.744-1.873v3.745l-3.744-1.872zm47.1 35.226a2.712 2.712 0 0 1-2.71 2.71 2.712 2.712 0 0 1-2.71-2.71V55.548h-2.71v23.033a2.712 2.712 0 0 1-2.71 2.71 2.712 2.712 0 0 1-2.71-2.71V48.774h2.78c.331 2.293 2.29 4.065 4.672 4.065h6.097V78.58zm6.773-30.484c0 1.12-.911 2.032-2.032 2.032H68.42a2.035 2.035 0 0 1-2.032-2.032c0-1.12.912-2.032 2.032-2.032h10.162v-2.71h-4.065c0-2.989-2.43-5.42-5.42-5.42H54.826a13.535 13.535 0 0 1 12.917-9.483c7.47 0 13.548 6.077 13.548 13.548v6.097z"/>
        <path d="M23.032 24.387c-6.724 0-12.193 5.47-12.193 12.194 0 4.43 2.409 8.518 6.286 10.669l1.316-2.371a9.492 9.492 0 0 1-4.893-8.298c0-5.229 4.256-9.484 9.484-9.484 4.775 0 8.822 3.567 9.411 8.297l2.688-.336c-.757-6.083-5.96-10.67-12.099-10.67zM5.42 73.161h21.677V56.903H5.419v16.258zm2.709-13.548h16.258v10.839H8.13v-10.84zM29.806 56.903v16.258h21.678V56.903H29.806zm18.968 13.549H32.516v-10.84h16.258v10.84zM56.903 5.42h2.71v2.709h-2.71zM51.484 5.42h2.71v2.709h-2.71zM46.065 5.42h2.71v2.709h-2.71zM40.645 10.839h14.903v2.71H40.645zM40.645 16.258h14.903v2.71H40.645zM40.645 21.677h14.903v2.71H40.645zM40.645 5.42h2.71v2.709h-2.71z"/>
    </g>
</svg>
