<svg xmlns="http://www.w3.org/2000/svg" width="62" height="84" viewBox="0 0 62 84">
    <g fill="#000" fill-rule="nonzero">
        <path d="M55.31 0H6.69C3.002 0 0 2.994 0 6.674v70.303c0 3.68 3.001 6.674 6.69 6.674h48.62c3.689 0 6.69-2.994 6.69-6.674V6.674C62 2.994 58.999 0 55.31 0zm4.014 76.977c0 2.208-1.801 4.004-4.015 4.004H6.691a4.014 4.014 0 0 1-4.015-4.004V6.674c0-2.208 1.801-4.004 4.015-4.004h48.618a4.014 4.014 0 0 1 4.015 4.004v70.303z"/>
        <path d="M54.76 4.925L16.94 4.92c-.737 0-1.335.6-1.335 1.34 0 .74.597 1.34 1.335 1.34l36.486.004v62.54H7.591L7.595 7.6h4.004c.738 0 1.335-.6 1.335-1.34 0-.74-.597-1.34-1.335-1.34H6.26c-.736 0-1.334.6-1.334 1.34L4.92 71.485a1.332 1.332 0 0 0 1.335 1.34H54.76c.738 0 1.335-.6 1.335-1.34V6.265c0-.74-.597-1.34-1.334-1.34zM33.132 75.778h-5.248c-.725 0-1.313.66-1.313 1.476 0 .815.588 1.476 1.313 1.476h5.248c.725 0 1.312-.66 1.312-1.476 0-.815-.587-1.476-1.312-1.476z"/>
        <path d="M48.839 12.794H14.145c-.746 0-1.351.66-1.351 1.476 0 .815.605 1.476 1.351 1.476H48.84c.746 0 1.351-.66 1.351-1.476 0-.815-.605-1.476-1.351-1.476zM48.839 18.698H14.145c-.746 0-1.351.661-1.351 1.477 0 .815.605 1.476 1.351 1.476H48.84c.746 0 1.351-.661 1.351-1.476 0-.816-.605-1.477-1.351-1.477zM14.12 27.556h17.03c.732 0 1.326-.661 1.326-1.477 0-.815-.594-1.476-1.327-1.476H14.121c-.733 0-1.327.661-1.327 1.476 0 .816.594 1.477 1.327 1.477zM48.839 31.492H14.145c-.746 0-1.351.661-1.351 1.476 0 .816.605 1.476 1.351 1.476H48.84c.746 0 1.351-.66 1.351-1.476 0-.815-.605-1.476-1.351-1.476zM48.839 37.397H14.145c-.746 0-1.351.66-1.351 1.476 0 .815.605 1.476 1.351 1.476H48.84c.746 0 1.351-.66 1.351-1.476 0-.815-.605-1.476-1.351-1.476zM48.839 44.286H14.145c-.746 0-1.351.66-1.351 1.476 0 .815.605 1.476 1.351 1.476H48.84c.746 0 1.351-.66 1.351-1.476 0-.815-.605-1.476-1.351-1.476zM48.839 50.19H14.145c-.746 0-1.351.661-1.351 1.477 0 .815.605 1.476 1.351 1.476H48.84c.746 0 1.351-.661 1.351-1.476 0-.816-.605-1.477-1.351-1.477zM50.19 58.556c0-.816-.605-1.477-1.351-1.477H14.145c-.746 0-1.351.661-1.351 1.477 0 .815.605 1.476 1.351 1.476H48.84c.746 0 1.351-.661 1.351-1.476zM14.12 62.984c-.732 0-1.326.661-1.326 1.476 0 .816.594 1.477 1.327 1.477h17.028c.733 0 1.327-.661 1.327-1.477 0-.815-.594-1.476-1.327-1.476H14.121z"/>
    </g>
</svg>
