<svg xmlns="http://www.w3.org/2000/svg" width="78" height="84" viewBox="0 0 78 84">
    <g fill="#000" fill-rule="nonzero">
        <path d="M8.92 6.69h2.973v2.973H8.92zM14.867 6.69h14.867v2.973H14.867zM5.947 12.637h23.788v2.973H5.947zM5.947 18.584h19.327v2.973H5.947zM50.549 21.558h2.973v2.973h-2.973zM56.496 21.558h14.867v2.973H56.496zM47.575 27.504h23.788v2.973H47.575zM47.575 33.451h19.327v2.973H47.575zM3.006 33.387a38.135 38.135 0 0 0 0 3.102l2.974-.128a32.295 32.295 0 0 1-.001-2.846l-2.973-.128zM16.935 63.25l1.811-2.358A32.473 32.473 0 0 1 6.223 39.206l-2.952.384a35.432 35.432 0 0 0 13.664 23.66zM64.288 10.117A35.533 35.533 0 0 0 46.41.101l-.643 2.904a32.592 32.592 0 0 1 16.378 9.186l2.143-2.074z"/>
        <path d="M67.436 42.372h8.387c.821 0 1.487-.666 1.487-1.487V17.097c0-.82-.666-1.486-1.487-1.486H61.237A29.623 29.623 0 0 0 38.655 5.204c-.995 0-1.988.066-2.974.165V2.23c0-.821-.665-1.487-1.486-1.487H1.487C.666.743 0 1.41 0 2.23v23.788c0 .82.666 1.486 1.487 1.486H9.87C6.203 41.635 13.37 56.333 26.761 62.145v1.04h-1.487c-.82 0-1.486.666-1.486 1.488v11.893c0 .821.665 1.487 1.486 1.487h1.487v1.487a4.46 4.46 0 0 0 4.46 4.46h14.867a4.46 4.46 0 0 0 4.46-4.46v-1.487h1.487c.821 0 1.487-.666 1.487-1.487V64.673c0-.822-.666-1.487-1.487-1.487H50.55v-1.04a29.64 29.64 0 0 0 16.887-19.774zm6.9-2.974h-13.38c-.322 0-.635.105-.892.298l-3.568 2.676v-1.487c0-.821-.666-1.487-1.487-1.487H44.602V18.584h29.734v20.814zm-32.708 7.434v16.354h-5.947V46.832c0-.23-.053-.458-.156-.665l-4.436-8.871 7.157 2.046c.267.076.55.076.818 0l2.564-.733v2.276c0 .821.666 1.487 1.487 1.487h.568l-1.906 3.795c-.1.207-.151.435-.149.665zM2.973 3.717h29.735V24.53H20.814c-.82 0-1.487.666-1.487 1.487v1.486l-3.568-2.676a1.487 1.487 0 0 0-.892-.297H2.973V3.717zm25.823 56.05C15.967 54.727 9.1 40.735 12.961 27.503h1.411l5.55 4.163a1.487 1.487 0 0 0 2.379-1.19v-2.973h11.894c.82 0 1.486-.665 1.486-1.486V8.36a27.15 27.15 0 0 1 2.974-.183 26.64 26.64 0 0 1 18.49 7.434h-14.03c-.821 0-1.487.665-1.487 1.486v18.418l-2.973.85-9.998-2.857a1.496 1.496 0 0 0-1.301.24l-5.947 4.46 1.784 2.38 4.521-3.392 4.994 9.987v16.003h-2.973V61.15a1.487 1.487 0 0 0-.939-1.385zm-2.035 6.392H50.55v2.974H26.76v-2.974zm20.814 13.38c0 .822-.665 1.488-1.487 1.488H31.221a1.487 1.487 0 0 1-1.486-1.487v-1.487h17.84v1.487zm2.974-4.46H26.76v-2.973H50.55v2.974zm-5.947-11.893V47.183l2.405-4.811h6.515v2.973a1.487 1.487 0 0 0 2.379 1.19l5.55-4.163h2.91a26.7 26.7 0 0 1-15.848 17.394 1.487 1.487 0 0 0-.938 1.383v2.037h-2.973z"/>
    </g>
</svg>
