<svg xmlns="http://www.w3.org/2000/svg" xmlns:xlink="http://www.w3.org/1999/xlink" width="1024" height="804" viewBox="0 0 1024 804">
    <defs>
        <path id="a" d="M.047.534h5.664v5.66H.047z"/>
    </defs>
    <g fill="none" fill-rule="evenodd">
        <g fill="#FDC556">
            <path d="M951.407 692.73c-20.543-20.527-20.543-53.807 0-74.335 20.543-20.527 53.848-20.527 74.39 0 20.543 20.528 20.543 53.808 0 74.335-20.542 20.527-53.847 20.527-74.39 0" opacity=".425"/>
            <g opacity=".15">
                <path d="M986.09 574.83a2.83 2.83 0 0 1 2.832-2.83 2.83 2.83 0 1 1 0 5.659 2.83 2.83 0 0 1-2.832-2.83M1007.352 577.08a2.832 2.832 0 0 1 5.469 1.472 2.83 2.83 0 0 1-3.472 1.997 2.828 2.828 0 0 1-1.997-3.47M1010.097 734.598a2.833 2.833 0 0 1-5.494 1.378 2.832 2.832 0 0 1 5.494-1.378M988.927 737.586a2.83 2.83 0 1 1-5.661-.098 2.83 2.83 0 0 1 5.66.098M967.708 734.968a2.832 2.832 0 0 1-5.443-1.567 2.832 2.832 0 0 1 5.443 1.567M947.9 726.923a2.832 2.832 0 0 1-4.846-2.93 2.835 2.835 0 0 1 3.889-.957 2.83 2.83 0 0 1 .958 3.887M930.872 714.004a2.834 2.834 0 0 1-4.004-.086 2.829 2.829 0 0 1 .087-4.002 2.834 2.834 0 0 1 4.004.087 2.829 2.829 0 0 1-.087 4.001M917.793 697.102a2.832 2.832 0 0 1-3.842-1.124 2.828 2.828 0 0 1 1.124-3.84 2.835 2.835 0 0 1 3.845 1.125 2.827 2.827 0 0 1-1.127 3.84M909.567 677.383a2.831 2.831 0 1 1 0 0M906.758 656.204a2.83 2.83 0 0 1 .149-5.659 2.831 2.831 0 1 1-.149 5.659M909.563 635.024a2.828 2.828 0 0 1-1.907-3.519 2.832 2.832 0 0 1 5.428 1.614 2.83 2.83 0 0 1-3.521 1.905M917.785 615.303a2.83 2.83 0 1 1 2.973-4.818 2.827 2.827 0 0 1 .925 3.893 2.834 2.834 0 0 1-3.898.925M930.86 598.398a2.83 2.83 0 0 1 .123-4 2.831 2.831 0 1 1-.122 4M947.887 585.476a2.828 2.828 0 0 1 1.16-3.831 2.838 2.838 0 0 1 3.835 1.158 2.831 2.831 0 0 1-1.16 3.832 2.835 2.835 0 0 1-3.835-1.159M967.692 577.428a2.833 2.833 0 0 1 5.519-1.282 2.83 2.83 0 0 1-2.118 3.396 2.831 2.831 0 0 1-3.4-2.114"/>
            </g>
        </g>
        <path fill="#FDC556" d="M252.497 609.1a2.831 2.831 0 0 1 2.833-2.832 2.83 2.83 0 1 1 0 5.66 2.83 2.83 0 0 1-2.833-2.829M273.76 611.35a2.831 2.831 0 0 1 3.47-1.996 2.83 2.83 0 1 1-1.473 5.465 2.828 2.828 0 0 1-1.998-3.47M293.702 619.05a2.832 2.832 0 0 1 4.898 2.845 2.833 2.833 0 0 1-4.898-2.844M310.952 631.673a2.835 2.835 0 0 1 4.007.018 2.828 2.828 0 0 1-.017 4.002 2.834 2.834 0 0 1-4.007-.017 2.83 2.83 0 0 1 .017-4.003M324.322 648.345a2.833 2.833 0 0 1 3.862 1.059 2.827 2.827 0 0 1-1.058 3.86 2.831 2.831 0 1 1-2.804-4.918M332.89 667.919a2.831 2.831 0 0 1 1.426 5.48 2.834 2.834 0 0 1-3.455-2.028 2.833 2.833 0 0 1 2.028-3.452M336.064 689.048a2.83 2.83 0 0 1-.048 5.659 2.83 2.83 0 1 1 .048-5.66M333.628 710.272a2.831 2.831 0 1 1-1.522 5.453 2.829 2.829 0 0 1-1.967-3.485 2.833 2.833 0 0 1 3.489-1.968M325.748 730.134a2.829 2.829 0 0 1 .992 3.877 2.835 2.835 0 0 1-3.88.992 2.829 2.829 0 0 1-.993-3.878 2.832 2.832 0 0 1 3.881-.991M312.967 747.261a2.828 2.828 0 0 1-.05 4.002 2.836 2.836 0 0 1-4.007-.051 2.828 2.828 0 0 1 .053-4.002 2.834 2.834 0 0 1 4.004.051M296.168 760.476a2.829 2.829 0 0 1-1.093 3.85 2.83 2.83 0 1 1-2.762-4.942 2.834 2.834 0 0 1 3.855 1.092M276.505 768.866a2.831 2.831 0 0 1-2.058 3.435 2.831 2.831 0 1 1 2.058-3.435"/>
        <g transform="translate(249.624 768.443)">
            <mask id="b" fill="#fff">
                <use xlink:href="#a"/>
            </mask>
            <path fill="#FDC556" d="M5.71 3.414a2.832 2.832 0 1 1-5.663-.1 2.832 2.832 0 0 1 5.664.1" mask="url(#b)"/>
        </g>
        <path fill="#FDC556" d="M234.115 769.238a2.832 2.832 0 0 1-5.443-1.568 2.834 2.834 0 0 1 3.506-1.936 2.83 2.83 0 0 1 1.937 3.504M214.309 761.193a2.834 2.834 0 0 1-3.89.957 2.83 2.83 0 1 1 2.93-4.844 2.83 2.83 0 0 1 .96 3.887M197.28 748.274a2.834 2.834 0 0 1-4.006-.088 2.827 2.827 0 0 1 .087-4 2.834 2.834 0 0 1 4.005.087 2.829 2.829 0 0 1-.087 4.001M184.201 731.372a2.833 2.833 0 0 1-3.843-1.126 2.827 2.827 0 0 1 1.125-3.84 2.833 2.833 0 0 1 3.843 1.126 2.83 2.83 0 0 1-1.125 3.84M175.974 711.653a2.831 2.831 0 1 1 0 0M173.166 690.472a2.83 2.83 0 1 1 .148-5.657 2.83 2.83 0 1 1-.148 5.657M175.97 669.294a2.83 2.83 0 1 1 1.615-5.427 2.831 2.831 0 1 1-1.615 5.427M184.193 649.571a2.83 2.83 0 1 1 2.972-4.818 2.83 2.83 0 1 1-2.972 4.818M197.269 632.668a2.828 2.828 0 0 1 .12-4 2.835 2.835 0 0 1 4.005.12 2.831 2.831 0 1 1-4.126 3.88M214.295 619.746a2.828 2.828 0 0 1 1.16-3.831 2.835 2.835 0 0 1 3.834 1.157 2.833 2.833 0 0 1-4.994 2.674M234.1 611.696a2.828 2.828 0 0 1 2.117-3.396 2.83 2.83 0 1 1 1.283 5.512 2.832 2.832 0 0 1-3.4-2.116"/>
        <g stroke="#FDC556" stroke-width="1.2" opacity=".205">
            <path d="M-33 193c0-57.437 46.563-104 104-104 57.438 0 104 46.563 104 104 0 57.438-46.562 104-104 104-57.437 0-104-46.562-104-104z"/>
            <path d="M-19 193c0-49.705 40.294-90 90-90s90 40.295 90 90c0 49.706-40.294 90-90 90s-90-40.294-90-90z"/>
            <path d="M-5 193c0-41.974 34.026-76 76-76s76 34.026 76 76-34.026 76-76 76-76-34.026-76-76z"/>
            <path d="M9 193c0-34.241 27.982-62 62.5-62 34.517 0 62.5 27.759 62.5 62 0 34.242-27.983 62-62.5 62C36.982 255 9 227.242 9 193z"/>
            <path d="M23 192.5c0-26.786 21.938-48.5 49-48.5 27.061 0 49 21.714 49 48.5S99.061 241 72 241c-27.062 0-49-21.714-49-48.5z"/>
            <path d="M37 193c0-19.33 15.67-35 35-35s35 15.67 35 35-15.67 35-35 35-35-15.67-35-35z"/>
            <path d="M51 193c0-11.598 9.402-21 21-21s21 9.402 21 21-9.402 21-21 21-21-9.402-21-21z"/>
        </g>
        <g stroke="#FDC556" stroke-width="1.005" opacity=".734">
            <path d="M631 785.255C631 750.872 658.893 723 693.302 723s62.302 27.872 62.302 62.255-27.893 62.256-62.302 62.256S631 819.638 631 785.255z"/>
            <path d="M647.613 785.255c0-25.213 20.456-45.652 45.689-45.652 25.234 0 45.688 20.439 45.688 45.652 0 25.214-20.454 45.654-45.688 45.654-25.233 0-45.689-20.44-45.689-45.654z"/>
            <path d="M664.228 785.255c0-16.044 13.017-29.052 29.074-29.052 16.058 0 29.074 13.008 29.074 29.052 0 16.046-13.016 29.053-29.074 29.053-16.057 0-29.074-13.007-29.074-29.053z"/>
            <path d="M680.842 785.255c0-6.876 5.578-12.45 12.46-12.45 6.881 0 12.46 5.574 12.46 12.45 0 6.876-5.579 12.451-12.46 12.451-6.882 0-12.46-5.575-12.46-12.45z"/>
        </g>
        <g stroke="#FDC556" stroke-width="1.2" opacity=".147">
            <path d="M717.606 423.707c0-100.069 81.182-181.19 181.327-181.19 100.144 0 181.328 81.121 181.328 181.19 0 100.068-81.184 181.19-181.328 181.19-100.145 0-181.327-81.122-181.327-181.19z"/>
            <path d="M741.783 423.707c0-86.726 70.358-157.032 157.15-157.032 86.79 0 157.15 70.306 157.15 157.032 0 86.727-70.36 157.032-157.15 157.032-86.792 0-157.15-70.305-157.15-157.032z"/>
            <path d="M765.959 423.707c0-73.384 59.534-132.873 132.975-132.873 73.439 0 132.973 59.489 132.973 132.873 0 73.384-59.534 132.873-132.973 132.873-73.44 0-132.975-59.49-132.975-132.873z"/>
            <path d="M790.137 423.707c0-60.04 48.71-108.715 108.796-108.715 60.086 0 108.795 48.674 108.795 108.715 0 60.042-48.709 108.714-108.795 108.714S790.137 483.75 790.137 423.707z"/>
            <path d="M814.313 423.707c0-46.7 37.885-84.556 84.621-84.556 46.733 0 84.618 37.857 84.618 84.556s-37.885 84.557-84.618 84.557c-46.736 0-84.62-37.858-84.62-84.557z"/>
            <path d="M838.491 423.707c0-33.356 27.06-60.397 60.442-60.397 33.382 0 60.443 27.04 60.443 60.397 0 33.356-27.061 60.397-60.443 60.397s-60.442-27.041-60.442-60.397z"/>
            <path d="M862.667 423.707c0-20.013 16.238-36.238 36.266-36.238s36.265 16.225 36.265 36.238c0 20.014-16.237 36.238-36.265 36.238-20.028 0-36.266-16.224-36.266-36.238z"/>
        </g>
        <g fill="#FDC556">
            <path d="M132.5 580c0-10.493 8.506-19 19-19 10.493 0 19 8.507 19 19s-8.507 19-19 19c-10.494 0-19-8.507-19-19" opacity=".532"/>
            <path d="M161.5 505.206l-.794-.206-.206 1.86.802.14zM166.5 493.586l-.953-.586c-.4.456-.694.977-1.047 1.463l.99.537c.341-.47.622-.974 1.01-1.414M164.5 499.404l-1.228-.404-.772 1.654 1.256.346zM170.105 489.604l-.605.665.775.731.583-.642.642-.583-.731-.775zM179.5 482.772l.402 1.228 1.598-.744-.347-1.256zM174.5 485.046l.586.954c.442-.385.944-.67 1.414-1.01l-.535-.99c-.487.352-1.007.648-1.465 1.046M185.5 480.206l.205.794 1.795-.199-.14-.801zM198.5 481.706l1.693.294.307-.696-1.753-.304zM192.5 480.924l1.905.076.095-.921-1.972-.079zM204.5 484.117c.5.295 1.012.57 1.504.883l.496-1.083c-.51-.325-1.04-.61-1.558-.917l-.442 1.117zM216.5 492.368c-.375-.466-.727-.95-1.164-1.368l-.836.678c.423.404.76.872 1.122 1.322l.878-.632zM210.5 486.877c.451.36.917.7 1.321 1.123l.679-.836c-.417-.436-.9-.79-1.368-1.164l-.632.877zM219.383 498l1.117-.442c-.306-.518-.593-1.046-.917-1.558l-1.083.495c.312.493.587 1.004.883 1.505M221.576 511l.924-.026-.08-1.974-.92.093zM220.794 504l.706-.247-.305-1.753-.695.307zM221.5 516.795l.795.205.205-1.86-.801-.14zM216.5 528.414l.953.586c.4-.457.694-.978 1.047-1.464l-.989-.536c-.341.469-.622.973-1.011 1.414M219.5 522.597l1.227.403.773-1.654-1.257-.346zM213.142 532.642l-.642.583.731.775.664-.605.605-.663-.774-.732zM201.5 539.744l.346 1.256 1.654-.772-.404-1.228zM207.5 537.01l.535.99c.486-.351 1.006-.647 1.465-1.046l-.586-.954c-.442.386-.945.67-1.414 1.01M195.5 541.199l.14.801 1.86-.206-.205-.794zM182.5 540.695l1.753.305.247-.706-1.693-.294zM189.5 541.92l1.972.08.028-.924-1.905-.076zM176.5 539.083c.51.325 1.04.61 1.56.917l.44-1.115c-.501-.298-1.011-.572-1.505-.885l-.495 1.083zM166.5 530.632c.375.466.726.95 1.163 1.368l.837-.679c-.422-.402-.761-.87-1.123-1.321l-.877.632zM171.5 534.836c.418.436.9.79 1.367 1.164l.633-.876c-.452-.36-.919-.702-1.32-1.124l-.68.836zM164.617 524l-1.117.44c.306.52.592 1.05.916 1.56l1.084-.495c-.311-.493-.588-1.004-.883-1.505M161.424 512l-.924.026.079 1.974.921-.094zM162.206 518l-.706.247.305 1.753.695-.307z"/>
        </g>
        <path fill="#FDC556" d="M999.858 193.142c-7.81-7.81-7.81-20.473 0-28.284 7.81-7.81 20.473-7.81 28.284 0 7.81 7.81 7.81 20.473 0 28.284-7.81 7.81-20.474 7.81-28.284 0M882.387 633.742c-11.812 0-21.387-9.567-21.387-21.37S870.575 591 882.387 591c11.813 0 21.388 9.569 21.388 21.371 0 11.804-9.575 21.371-21.388 21.371"/>
        <path stroke="#FDC556" stroke-width="1.2" d="M920.767 0c0 9.318-7.558 16.87-16.883 16.87C894.56 16.87 887 9.319 887 0"/>
        <path fill="#FDC556" d="M-27.5 565.734C-27.5 549.312-14.178 536 2.256 536s29.757 13.312 29.757 29.734c0 16.422-13.323 29.734-29.757 29.734S-27.5 582.156-27.5 565.734"/>
    </g>
</svg>
