<svg xmlns="http://www.w3.org/2000/svg" width="84" height="84" viewBox="0 0 84 84">
    <g fill="#000" fill-rule="nonzero">
        <path d="M84 43.355V32.484a6.733 6.733 0 0 0-4.827-6.489l-8.721-2.616V21.32c2.453-1.716 4.064-4.558 4.064-7.771V9.484c0-5.23-4.254-9.484-9.484-9.484s-9.484 4.254-9.484 9.484v4.064c0 3.215 1.611 6.057 4.065 7.772v2.058l-7.686 2.306a15.606 15.606 0 0 0-10.46-4.007 15.64 15.64 0 0 0-10.19 3.77l-6.89-2.068V21.32c2.454-1.716 4.065-4.558 4.065-7.771V9.484c0-5.23-4.255-9.484-9.484-9.484-5.23 0-9.484 4.254-9.484 9.484v4.064c0 3.215 1.61 6.057 4.064 7.772v2.058l-8.72 2.616A6.735 6.735 0 0 0 0 32.484v10.87h2.71v-10.87a4.037 4.037 0 0 1 2.897-3.893l8.723-2.618c.789 1.025 2.314 2.479 4.638 2.479 2.323 0 3.849-1.454 4.637-2.479l5.556 1.667a15.638 15.638 0 0 0-3.295 7.872 9.451 9.451 0 0 0-6.898-2.996c-5.23 0-9.484 4.255-9.484 9.484v4.065c0 3.215 1.61 6.056 4.064 7.77v2.059l-8.72 2.616A6.735 6.735 0 0 0 0 65v12.226h16.258c.746 0 1.355.608 1.355 1.355V84h48.774v-5.42c0-.746.609-1.354 1.355-1.354H84V65a6.733 6.733 0 0 0-4.827-6.489l-8.721-2.616v-2.058c2.453-1.716 4.064-4.557 4.064-7.771V42c0-5.23-4.254-9.484-9.484-9.484a9.453 9.453 0 0 0-6.774 2.859v-1.284a7.285 7.285 0 0 0-3.723-6.358l5.86-1.76c.788 1.024 2.314 2.478 4.637 2.478 2.324 0 3.85-1.454 4.638-2.479l8.725 2.618a4.038 4.038 0 0 1 2.895 3.893v10.87H84zM18.968 2.71a6.782 6.782 0 0 1 6.774 6.774h-6.213c-.86 0-1.705-.35-2.313-.958l-.958-.958-.958.958a3.293 3.293 0 0 1-2.313.958h-.793a6.782 6.782 0 0 1 6.774-6.774zm-6.774 10.838v-1.354h.793c1.18 0 2.308-.34 3.271-.972.963.633 2.09.972 3.27.972h6.214v1.354a6.782 6.782 0 0 1-6.774 6.775 6.782 6.782 0 0 1-6.774-6.775zm6.774 12.194c-1.44 0-2.374-1.21-2.71-1.727v-1.381a9.427 9.427 0 0 0 5.42-.001v1.38c-.337.52-1.27 1.729-2.71 1.729zm37.241 23.78a9.525 9.525 0 0 0 3.404 4.315v2.058l-8.72 2.616a6.653 6.653 0 0 0-.839.32l-1.28-.295v-2.67a10.895 10.895 0 0 0 3.29-4.443 6.747 6.747 0 0 0 4.145-1.901zM42 58.258c1.438 0 2.809-.287 4.065-.798v1.475L42 61.984l-4.065-3.049V57.46c1.256.511 2.627.798 4.065.798zm-5.728 2.817l3.303 2.478-3.398 2.039-.86-4.296.955-.221zm4.23 10.731h2.995l1.054 9.484h-5.102l1.054-9.484zm3.23-2.71h-3.466l-.778-2.332L42 65.257l2.51 1.507-.777 2.333zm.693-5.543l3.303-2.478.954.22-.86 4.296-3.397-2.038zm10.067-16.11a4.063 4.063 0 0 1-1.712 1.096c.038-.369.059-.742.059-1.12v-6.483c1.458.553 2.543 1.836 2.689 3.369a4.041 4.041 0 0 1-1.036 3.139zm-4.363-.024c0 4.484-3.646 8.13-8.129 8.13s-8.129-3.646-8.129-8.13v-6.774h4.6c2.952 0 5.825-.737 8.394-2.145l1.072 2.145h2.192v6.774zm-18.91 1.12a4.063 4.063 0 0 1-1.71-1.095 4.039 4.039 0 0 1-1.037-3.138c.146-1.533 1.231-2.817 2.69-3.368v6.481c0 .378.02.751.058 1.12zm.717 2.884c.7 1.752 1.84 3.28 3.29 4.444v2.669l-1.28.295a7.011 7.011 0 0 0-.838-.32l-8.72-2.616v-2.058a9.534 9.534 0 0 0 3.403-4.315 6.747 6.747 0 0 0 4.145 1.901zM18.968 35.226A6.782 6.782 0 0 1 25.742 42h-.794c-.86 0-1.705-.35-2.313-.958l-.958-.958-.957.958a3.293 3.293 0 0 1-2.313.958h-6.213a6.782 6.782 0 0 1 6.774-6.774zm-6.774 10.839V44.71h6.213c1.18 0 2.307-.339 3.27-.971.964.632 2.09.97 3.271.97h.794v1.356a6.782 6.782 0 0 1-6.774 6.774 6.782 6.782 0 0 1-6.774-6.774zm6.774 9.483c.941 0 1.85-.142 2.71-.4v1.381c-.337.52-1.27 1.73-2.71 1.73s-2.374-1.21-2.71-1.728v-1.38a9.472 9.472 0 0 0 2.71.397zm-2.71 18.968h-5.42v-9.484H8.13v9.484h-5.42V65a4.037 4.037 0 0 1 2.898-3.893l8.723-2.617c.789 1.024 2.314 2.478 4.638 2.478 2.323 0 3.849-1.454 4.637-2.478l5.138 1.542-3.779.87a9.442 9.442 0 0 0-7.351 9.242v1.662h2.71v-1.662a6.745 6.745 0 0 1 5.25-6.6l7.103-1.64 1.597 7.988 2.835-1.7.802 2.406-1.187 10.692h-6.917V70.452h-2.71V81.29h-6.773v-2.71a4.07 4.07 0 0 0-4.065-4.064zm62.135-13.409A4.037 4.037 0 0 1 81.29 65v9.516h-5.419v-9.484h-2.71v9.484h-5.42a4.07 4.07 0 0 0-4.064 4.065v2.71h-6.774V70.45h-2.71v10.84h-6.916L46.09 70.597l.802-2.406 2.834 1.7 1.597-7.988 7.104 1.64a6.745 6.745 0 0 1 5.251 6.6v1.662h2.71v-1.662a9.442 9.442 0 0 0-7.351-9.241l-3.779-.871 5.138-1.542c.788 1.024 2.314 2.478 4.637 2.478 2.324 0 3.85-1.454 4.638-2.478l8.723 2.617zm-10.651-4.576c-.336.518-1.27 1.727-2.71 1.727-1.443 0-2.377-1.214-2.71-1.727v-1.382c.86.257 1.769.4 2.71.4.942 0 1.851-.143 2.71-.4v1.382zm-2.71-3.692a6.782 6.782 0 0 1-6.774-6.774V44.71h.794c1.18 0 2.307-.339 3.27-.971.964.632 2.091.97 3.271.97h6.213v1.356a6.782 6.782 0 0 1-6.774 6.774zm0-17.613A6.782 6.782 0 0 1 71.806 42h-6.213c-.86 0-1.705-.35-2.313-.958l-.957-.958-.958.958a3.293 3.293 0 0 1-2.313.958h-.794a6.782 6.782 0 0 1 6.774-6.774zm-9.484 4.18c-1.198-.908-2.687-1.47-4.297-1.47h-1.64l-1.666-3.333-1.276.85a14.73 14.73 0 0 1-8.198 2.482h-5.722c-1.61 0-3.099.563-4.297 1.47v-2.003c0-7.175 5.839-13.015 13.014-13.015 3.477 0 6.746 1.354 9.204 3.811l1.437 1.438.304.102a4.584 4.584 0 0 1 3.137 4.353v5.314zM65.032 2.71a6.782 6.782 0 0 1 6.774 6.774h-.793c-.861 0-1.705-.35-2.313-.958l-.958-.958-.958.958a3.293 3.293 0 0 1-2.313.958h-6.213a6.782 6.782 0 0 1 6.774-6.774zm-6.774 10.838v-1.354h6.213c1.18 0 2.308-.34 3.27-.972.964.633 2.091.972 3.272.972h.793v1.354a6.782 6.782 0 0 1-6.774 6.775 6.782 6.782 0 0 1-6.774-6.775zm6.774 12.194c-1.443 0-2.377-1.214-2.71-1.727v-1.382c.86.257 1.769.4 2.71.4.942 0 1.851-.143 2.71-.4v1.38c-.336.52-1.27 1.729-2.71 1.729z"/>
        <path d="M31.161 0h2.71v2.71h-2.71zM31.161 5.42h2.71v14.903h-2.71zM50.129 0h2.71v2.71h-2.71zM50.129 5.42h2.71v14.903h-2.71zM36.58 5.42h2.71v9.483h-2.71zM36.58 17.613h2.71v2.71h-2.71zM44.71 5.42h2.71v9.483h-2.71zM44.71 17.613h2.71v2.71h-2.71z"/>
    </g>
</svg>
