<svg xmlns="http://www.w3.org/2000/svg" xmlns:xlink="http://www.w3.org/1999/xlink" width="27" height="23" viewBox="0 0 27 23">
    <defs>
        <path id="a" d="M.016.038h10.549v11.315H.016z"/>
    </defs>
    <g fill="none" fill-rule="evenodd">
        <path fill="#FF9101" d="M26.11 17.096v-1.349a.941.941 0 0 0-.348-.734 15.3 15.3 0 0 0-2.8-1.794.084.084 0 0 1-.049-.082V11.24a.883.883 0 0 0 .397-.74V8.532c0-.979-.794-1.773-1.773-1.773h-.424c-.978 0-1.772.794-1.772 1.773V10.5c0 .31.157.577.397.74v1.897a.09.09 0 0 1-.05.082c-.266.13-1.582.794-2.8 1.794a.959.959 0 0 0-.348.734v1.349"/>
        <path fill="#000" d="M5.611 4.15A10.45 10.45 0 0 1 13.006.984a10.43 10.43 0 0 1 7.406 2.936l-1.11.01a.5.5 0 0 0-.489.501c.006.272.223.49.495.49h.005l2.3-.028a.5.5 0 0 0 .49-.5l-.027-2.3a.504.504 0 0 0-.5-.49.5.5 0 0 0-.49.501l.01 1.115a11.399 11.399 0 0 0-8.1-3.22A11.386 11.386 0 0 0 4.91 3.46a.496.496 0 0 0 .005.696c.19.196.506.19.696-.006M5.16 20.88l-.01-1.115a11.409 11.409 0 0 0 7.976 3.22h.136a11.386 11.386 0 0 0 8.085-3.459.496.496 0 0 0-.005-.696.496.496 0 0 0-.696.006A10.451 10.451 0 0 1 13.25 22a10.421 10.421 0 0 1-7.406-2.936l1.11-.01a.5.5 0 0 0 .489-.501.495.495 0 0 0-.495-.49h-.006l-2.3.028a.494.494 0 0 0-.489.495l.027 2.3c.006.271.223.489.495.489h.006a.483.483 0 0 0 .478-.495M4.165 11.24a.486.486 0 0 0-.217-.408.398.398 0 0 1-.174-.326V8.537c0-.707.57-1.277 1.277-1.277h.424c.707 0 1.278.57 1.278 1.277v1.969a.39.39 0 0 1-.174.326.493.493 0 0 0-.217.408v1.897c0 .218.125.424.326.522.245.12 1.522.767 2.702 1.735a.469.469 0 0 1 .169.353v1.349c0 .272.223.495.495.495a.497.497 0 0 0 .494-.495v-1.349c0-.435-.19-.843-.527-1.114-1.044-.86-2.164-1.48-2.67-1.74v-1.42a1.38 1.38 0 0 0 .397-.967V8.537a2.264 2.264 0 0 0-2.262-2.262h-.424A2.264 2.264 0 0 0 2.8 8.537v1.969c0 .364.147.712.397.968v1.419c-.5.26-1.62.88-2.67 1.74-.337.277-.527.68-.527 1.114v1.349c0 .272.223.495.495.495a.497.497 0 0 0 .495-.495v-1.349c0-.141.06-.266.168-.353a15.125 15.125 0 0 1 2.703-1.735.587.587 0 0 0 .326-.522V11.24h-.022z"/>
        <g transform="translate(16.04 6.237)">
            <mask id="b" fill="#fff">
                <use xlink:href="#a"/>
            </mask>
            <path fill="#000" d="M10.07 11.353a.497.497 0 0 0 .495-.495V9.51c0-.435-.19-.843-.528-1.115-1.044-.859-2.164-1.479-2.67-1.74V5.236a1.38 1.38 0 0 0 .398-.968V2.3A2.264 2.264 0 0 0 5.503.038h-.425A2.264 2.264 0 0 0 2.817 2.3v1.968c0 .365.146.713.396.968v1.42c-.5.26-1.62.88-2.67 1.74-.336.277-.527.679-.527 1.114v1.348c0 .272.223.495.495.495a.497.497 0 0 0 .495-.495V9.51c0-.141.06-.267.168-.353a15.125 15.125 0 0 1 2.703-1.735.587.587 0 0 0 .326-.522V5.002a.486.486 0 0 0-.217-.407.398.398 0 0 1-.174-.327V2.3c0-.707.57-1.278 1.277-1.278h.424c.707 0 1.278.571 1.278 1.278v1.968a.39.39 0 0 1-.174.327.493.493 0 0 0-.217.407V6.9c0 .218.125.424.326.522.245.12 1.522.767 2.702 1.735a.468.468 0 0 1 .169.353v1.348a.469.469 0 0 0 .473.495" mask="url(#b)"/>
        </g>
    </g>
</svg>
