<?xml version="1.0" encoding="UTF-8"?>
<svg width="458px" height="55px" viewBox="0 0 458 55" version="1.1" xmlns="http://www.w3.org/2000/svg" xmlns:xlink="http://www.w3.org/1999/xlink">
    <title>welcome-step-5-text</title>
    <g id="Welcome-Desktop" stroke="none" stroke-width="1" fill="none" fill-rule="evenodd">
        <g id="welcome-step-5-text" fill-rule="nonzero">
            <path d="M7.984375,34.25 C8.890625,34.6875 9.75,34.8515625 10.5625,34.7421875 C11.375,34.6328125 12.140625,34.421875 12.859375,34.109375 C13.015625,34.171875 13.1953125,34.1953125 13.3984375,34.1796875 C13.6015625,34.1640625 13.828125,34.234375 14.078125,34.390625 C14.609375,34.046875 15.21875,33.7890625 15.90625,33.6171875 C16.59375,33.4453125 17.296875,33.203125 18.015625,32.890625 C18.921875,32.140625 19.65625,31.4140625 20.21875,30.7109375 C20.78125,30.0078125 21.265625,29.15625 21.671875,28.15625 C21.859375,26.84375 21.796875,25.6875 21.484375,24.6875 C21.171875,23.6875 20.734375,22.828125 20.171875,22.109375 C20.234375,21.859375 20.21875,21.6875 20.125,21.59375 C20.03125,21.5 19.984375,21.359375 19.984375,21.171875 C19.390625,20.671875 18.875,20.109375 18.4375,19.484375 C18,18.859375 17.546875,18.2421875 17.078125,17.6328125 C16.609375,17.0234375 16.0859375,16.4765625 15.5078125,15.9921875 C14.9296875,15.5078125 14.203125,15.15625 13.328125,14.9375 C13.265625,14.78125 13.171875,14.65625 13.046875,14.5625 C12.921875,14.46875 12.7890625,14.3828125 12.6484375,14.3046875 C12.5078125,14.2265625 12.375,14.1484375 12.25,14.0703125 C12.125,13.9921875 12.03125,13.875 11.96875,13.71875 C12.625,13.40625 13.265625,13.1796875 13.890625,13.0390625 C14.515625,12.8984375 15.140625,12.78125 15.765625,12.6875 C16.390625,12.59375 17.015625,12.4921875 17.640625,12.3828125 C18.265625,12.2734375 18.890625,12.109375 19.515625,11.890625 C19.609375,11.921875 19.6796875,11.921875 19.7265625,11.890625 L19.7265625,11.890625 L19.8671875,11.796875 C19.9140625,11.765625 19.9453125,11.765625 19.9609375,11.796875 C19.9765625,11.828125 19.984375,11.90625 19.984375,12.03125 C21.078125,11.875 21.7890625,11.7578125 22.1171875,11.6796875 C22.4453125,11.6015625 22.6875,11.546875 22.84375,11.515625 C23,11.484375 23.2265625,11.453125 23.5234375,11.421875 C23.8203125,11.390625 24.5625,11.34375 25.75,11.28125 C26.375,11.09375 26.9609375,10.9296875 27.5078125,10.7890625 C28.0546875,10.6484375 28.6875,10.453125 29.40625,10.203125 C29.8125,9.234375 29.8515625,8.34375 29.5234375,7.53125 C29.1953125,6.71875 28.75,6.03125 28.1875,5.46875 C28.34375,5.15625 28.328125,4.8125 28.140625,4.4375 C27.953125,4.0625 27.765625,3.75 27.578125,3.5 C26.828125,3.40625 26.296875,3.328125 25.984375,3.265625 C25.671875,3.203125 25.4609375,3.1640625 25.3515625,3.1484375 C25.2421875,3.1328125 25.1875,3.1328125 25.1875,3.1484375 C25.1875,3.1640625 25.125,3.1875 25,3.21875 C24.875,3.25 24.6328125,3.296875 24.2734375,3.359375 C23.9140625,3.421875 23.34375,3.484375 22.5625,3.546875 C22.1875,3.578125 21.78125,3.59375 21.34375,3.59375 C20.90625,3.59375 20.453125,3.625 19.984375,3.6875 C19.515625,3.75 19.15625,3.78125 18.90625,3.78125 L18.90625,3.78125 L18.296875,3.78125 C18.140625,3.78125 17.96875,3.796875 17.78125,3.828125 C17.59375,3.859375 17.328125,3.921875 16.984375,4.015625 C16.453125,3.984375 15.9765625,3.84375 15.5546875,3.59375 C15.1328125,3.34375 14.734375,3.046875 14.359375,2.703125 C13.984375,2.359375 13.625,1.9921875 13.28125,1.6015625 C12.9375,1.2109375 12.59375,0.84375 12.25,0.5 C10.125,1.3125 8.0546875,2.3515625 6.0390625,3.6171875 C4.0234375,4.8828125 2.34375,6.4375 1,8.28125 C0.875,8.84375 0.78125,9.3671875 0.71875,9.8515625 C0.65625,10.3359375 0.609375,10.8046875 0.578125,11.2578125 L0.578125,11.2578125 L0.484375,12.6171875 C0.453125,13.0703125 0.421875,13.546875 0.390625,14.046875 C0.421875,14.484375 0.5234375,14.890625 0.6953125,15.265625 C0.8671875,15.640625 1.078125,16.0078125 1.328125,16.3671875 C1.578125,16.7265625 1.8359375,17.0703125 2.1015625,17.3984375 C2.3671875,17.7265625 2.609375,18.078125 2.828125,18.453125 C4.109375,19.046875 5.4296875,19.6875 6.7890625,20.375 C8.1484375,21.0625 9.515625,21.53125 10.890625,21.78125 C11.203125,22.125 11.6328125,22.4375 12.1796875,22.71875 C12.7265625,23 13.203125,23.140625 13.609375,23.140625 C13.578125,23.359375 13.6015625,23.515625 13.6796875,23.609375 C13.7578125,23.703125 13.84375,23.7890625 13.9375,23.8671875 L13.9375,23.8671875 L14.21875,24.1015625 C14.3125,24.1796875 14.359375,24.3125 14.359375,24.5 C14.265625,24.6875 14.125,24.828125 13.9375,24.921875 C13.75,25.015625 13.546875,25.109375 13.328125,25.203125 C13.109375,25.296875 12.9140625,25.3984375 12.7421875,25.5078125 C12.5703125,25.6171875 12.453125,25.796875 12.390625,26.046875 C10.421875,26.421875 8.5703125,26.5546875 6.8359375,26.4453125 C5.1015625,26.3359375 3.40625,26.203125 1.75,26.046875 C1.5625,26.203125 1.4140625,26.3046875 1.3046875,26.3515625 C1.1953125,26.3984375 1.046875,26.453125 0.859375,26.515625 C0.421875,27.359375 0.3125,28.2265625 0.53125,29.1171875 C0.75,30.0078125 1.21875,30.75 1.9375,31.34375 C2.0625,31.9375 2.3203125,32.4296875 2.7109375,32.8203125 C3.1015625,33.2109375 3.578125,33.515625 4.140625,33.734375 C4.703125,33.953125 5.3203125,34.1015625 5.9921875,34.1796875 C6.6640625,34.2578125 7.328125,34.28125 7.984375,34.25 Z M26.89375,36.265625 C27.26875,36.265625 27.721875,36.203125 28.253125,36.078125 L28.253125,36.078125 L28.8625,35.984375 L29.003125,35.421875 C29.065625,35.359375 29.159375,35.3046875 29.284375,35.2578125 C29.409375,35.2109375 29.503125,35.15625 29.565625,35.09375 C29.784375,35 30.003125,34.890625 30.221875,34.765625 C30.440625,34.640625 30.628125,34.46875 30.784375,34.25 L30.784375,34.25 L30.971875,33.6875 C30.971875,33.46875 30.9640625,33.3359375 30.9484375,33.2890625 C30.9328125,33.2421875 30.925,33.203125 30.925,33.171875 C30.925,33.140625 30.940625,33.09375 30.971875,33.03125 C31.003125,32.96875 31.065625,32.828125 31.159375,32.609375 C31.253125,32.328125 31.346875,32.0390625 31.440625,31.7421875 C31.534375,31.4453125 31.64375,31.140625 31.76875,30.828125 C31.70625,30.578125 31.659375,30.34375 31.628125,30.125 C31.596875,29.90625 31.55,29.671875 31.4875,29.421875 L31.4875,29.421875 L31.3,29.046875 C31.01875,28.796875 30.64375,28.6328125 30.175,28.5546875 C29.70625,28.4765625 29.20625,28.359375 28.675,28.203125 C28.3625,28.140625 27.9953125,28.0703125 27.5734375,27.9921875 C27.1515625,27.9140625 26.878125,27.828125 26.753125,27.734375 L26.753125,27.734375 L26.14375,27.40625 L25.721875,28.015625 C25.378125,28.515625 25.128125,28.875 24.971875,29.09375 C24.815625,29.3125 24.675,29.4921875 24.55,29.6328125 C24.425,29.7734375 24.26875,29.90625 24.08125,30.03125 C23.89375,30.15625 23.6125,30.359375 23.2375,30.640625 L23.2375,30.640625 L23.753125,31.53125 L23.190625,31.953125 L23.846875,32.609375 C23.940625,32.734375 24.01875,33 24.08125,33.40625 C24.14375,33.59375 24.190625,33.7890625 24.221875,33.9921875 C24.253125,34.1953125 24.425,34.515625 24.7375,34.953125 C24.9875,35.109375 25.221875,35.28125 25.440625,35.46875 C25.659375,35.65625 25.95625,35.921875 26.33125,36.265625 L26.33125,36.265625 L26.89375,36.265625 Z" id="5." fill="#C8C8C8"></path>
            <path d="M51.91,16.005 C52.41,15.995 52.9,15.93 53.38,15.81 C53.86,15.69 54.3,15.53 54.7,15.33 C55.1,15.13 55.42,14.9 55.66,14.64 C55.86,14.38 55.91,14.12 55.81,13.86 C55.77,13.76 55.695,13.68 55.585,13.62 C55.475,13.56 55.36,13.55 55.24,13.59 C54.88,13.73 54.5,13.855 54.1,13.965 C53.7,14.075 53.295,14.155 52.885,14.205 C52.475,14.255 52.07,14.27 51.67,14.25 C51.27,14.23 50.91,14.15 50.59,14.01 C50.07,13.79 49.645,13.435 49.315,12.945 C48.985,12.455 48.82,11.87 48.82,11.19 C48.82,10.49 48.95,9.815 49.21,9.165 C49.47,8.515 49.83,8.02 50.29,7.68 C50.75,7.34 51.21,7.16 51.67,7.14 C52.13,7.12 52.57,7.16 52.99,7.26 C53.23,7.32 53.4,7.24 53.5,7.02 C53.56,6.92 53.585,6.795 53.575,6.645 C53.565,6.495 53.52,6.37 53.44,6.27 C53.1,5.83 52.585,5.575 51.895,5.505 C51.205,5.435 50.52,5.57 49.84,5.91 C48.92,6.37 48.205,7.08 47.695,8.04 C47.185,9 46.95,10.08 46.99,11.28 C47.01,11.78 47.09,12.265 47.23,12.735 C47.37,13.205 47.58,13.645 47.86,14.055 C48.14,14.465 48.495,14.825 48.925,15.135 C49.355,15.445 49.88,15.68 50.5,15.84 C50.94,15.96 51.41,16.015 51.91,16.005 Z M58.51,18.51 C58.67,18.51 58.815,18.445 58.945,18.315 C59.075,18.185 59.18,17.94 59.26,17.58 C59.34,17.1 59.465,16.47 59.635,15.69 C59.805,14.91 60.025,14.14 60.295,13.38 C60.565,12.62 60.885,11.94 61.255,11.34 C61.625,10.74 62.06,10.39 62.56,10.29 C62.88,10.23 63.16,10.32 63.4,10.56 C63.64,10.8 63.845,11.135 64.015,11.565 C64.185,11.995 64.33,12.48 64.45,13.02 C64.57,13.56 64.67,14.095 64.75,14.625 C64.83,15.155 64.9,15.65 64.96,16.11 C65.02,16.57 65.08,16.92 65.14,17.16 C65.24,17.46 65.405,17.715 65.635,17.925 C65.865,18.135 66.06,18.24 66.22,18.24 C66.44,18.24 66.63,18.14 66.79,17.94 C66.95,17.74 67.03,17.48 67.03,17.16 C66.99,16.72 66.94,16.195 66.88,15.585 C66.82,14.975 66.725,14.335 66.595,13.665 C66.465,12.995 66.3,12.335 66.1,11.685 C65.9,11.035 65.655,10.445 65.365,9.915 C65.075,9.385 64.735,8.96 64.345,8.64 C63.955,8.32 63.51,8.16 63.01,8.16 C62.55,8.16 62.125,8.25 61.735,8.43 C61.345,8.61 60.975,8.85 60.625,9.15 C60.275,9.45 59.96,9.795 59.68,10.185 C59.4,10.575 59.16,10.97 58.96,11.37 C58.94,10.75 58.925,10.1 58.915,9.42 C58.905,8.74 58.895,8.08 58.885,7.44 C58.875,6.8 58.875,6.18 58.885,5.58 C58.895,4.98 58.9,4.44 58.9,3.96 C58.9,3.6 58.81,3.265 58.63,2.955 C58.45,2.645 58.24,2.47 58,2.43 C57.28,2.33 56.92,2.78 56.92,3.78 C56.88,4.98 56.86,6.105 56.86,7.155 C56.86,8.205 56.875,9.23 56.905,10.23 C56.935,11.23 56.98,12.225 57.04,13.215 C57.1,14.205 57.18,15.24 57.28,16.32 C57.3,16.5 57.35,16.715 57.43,16.965 C57.51,17.215 57.605,17.455 57.715,17.685 C57.825,17.915 57.945,18.11 58.075,18.27 C58.205,18.43 58.35,18.51 58.51,18.51 Z M71.5,15.78 C72.18,15.96 72.84,15.99 73.48,15.87 C74.22,15.75 74.89,15.465 75.49,15.015 C76.09,14.565 76.55,14.02 76.87,13.38 C76.95,12.88 76.85,12.58 76.57,12.48 C76.47,12.44 76.32,12.445 76.12,12.495 C75.92,12.545 75.73,12.65 75.55,12.81 C75.37,12.97 75.16,13.13 74.92,13.29 C74.68,13.45 74.415,13.595 74.125,13.725 C73.835,13.855 73.525,13.95 73.195,14.01 C72.865,14.07 72.54,14.08 72.22,14.04 C71.68,13.96 71.23,13.715 70.87,13.305 C70.51,12.895 70.31,12.34 70.27,11.64 C71.31,11.64 72.28,11.515 73.18,11.265 C74.08,11.015 74.92,10.66 75.7,10.2 C76.04,9.98 76.245,9.73 76.315,9.45 C76.385,9.17 76.34,8.84 76.18,8.46 C75.9,7.78 75.41,7.25 74.71,6.87 C74.01,6.49 73.23,6.33 72.37,6.39 C71.65,6.43 71.02,6.59 70.48,6.87 C69.94,7.15 69.49,7.505 69.13,7.935 C68.77,8.365 68.505,8.86 68.335,9.42 C68.165,9.98 68.11,10.57 68.17,11.19 C68.23,11.85 68.38,12.49 68.62,13.11 C68.86,13.73 69.21,14.27 69.67,14.73 C70.21,15.25 70.82,15.6 71.5,15.78 Z M70.21,9.9 C70.23,9.66 70.315,9.445 70.465,9.255 C70.615,9.065 70.785,8.895 70.975,8.745 C71.165,8.595 71.375,8.47 71.605,8.37 C71.835,8.27 72.05,8.2 72.25,8.16 C72.69,8.08 73.125,8.085 73.555,8.175 C73.985,8.265 74.28,8.5 74.44,8.88 C74.22,9.02 73.945,9.15 73.615,9.27 C73.285,9.39 72.925,9.495 72.535,9.585 C72.145,9.675 71.745,9.75 71.335,9.81 C70.925,9.87 70.55,9.9 70.21,9.9 Z M81.085,16.2 C81.635,16.28 82.19,16.275 82.75,16.185 C83.31,16.095 83.865,15.945 84.415,15.735 C84.965,15.525 85.49,15.28 85.99,15 C86.49,14.74 86.89,14.445 87.19,14.115 C87.49,13.785 87.54,13.46 87.34,13.14 C87.18,12.88 86.98,12.76 86.74,12.78 C86.5,12.8 86.24,12.87 85.96,12.99 C85.32,13.39 84.635,13.715 83.905,13.965 C83.175,14.215 82.52,14.33 81.94,14.31 C81.22,14.31 80.69,14.07 80.35,13.59 C80.01,13.11 79.89,12.52 79.99,11.82 C80.05,11.44 80.16,11.06 80.32,10.68 C80.48,10.3 80.685,9.955 80.935,9.645 C81.185,9.335 81.475,9.085 81.805,8.895 C82.135,8.705 82.51,8.61 82.93,8.61 C83.39,8.61 83.78,8.82 84.1,9.24 C84.24,9.46 84.41,9.585 84.61,9.615 C84.81,9.645 84.98,9.62 85.12,9.54 C85.3,9.44 85.41,9.305 85.45,9.135 C85.49,8.965 85.49,8.8 85.45,8.64 C85.23,7.92 84.78,7.425 84.1,7.155 C83.42,6.885 82.71,6.81 81.97,6.93 C81.51,7.01 81.09,7.165 80.71,7.395 C80.33,7.625 79.985,7.9 79.675,8.22 C79.365,8.54 79.1,8.895 78.88,9.285 C78.66,9.675 78.49,10.06 78.37,10.44 C78.07,11.46 78,12.45 78.16,13.41 C78.32,14.37 78.78,15.11 79.54,15.63 C80.02,15.93 80.535,16.12 81.085,16.2 Z M91,18.24 C91.32,18.26 91.55,18.15 91.69,17.91 C91.83,17.67 91.84,17.36 91.72,16.98 C91.66,16.28 91.595,15.58 91.525,14.88 C91.455,14.18 91.38,13.48 91.3,12.78 C91.72,13.06 92.185,13.365 92.695,13.695 C93.205,14.025 93.73,14.355 94.27,14.685 C94.81,15.015 95.34,15.335 95.86,15.645 C96.38,15.955 96.86,16.22 97.3,16.44 C97.54,16.56 97.795,16.59 98.065,16.53 C98.335,16.47 98.53,16.37 98.65,16.23 C98.91,15.95 98.84,15.64 98.44,15.3 C98,14.94 97.53,14.575 97.03,14.205 C96.53,13.835 96.03,13.485 95.53,13.155 C95.03,12.825 94.545,12.51 94.075,12.21 C93.605,11.91 93.19,11.64 92.83,11.4 C93.41,11.04 94.11,10.635 94.93,10.185 C95.75,9.735 96.54,9.33 97.3,8.97 C97.58,8.83 97.775,8.665 97.885,8.475 C97.995,8.285 98.03,8.07 97.99,7.83 C97.97,7.73 97.905,7.645 97.795,7.575 C97.685,7.505 97.555,7.455 97.405,7.425 C97.255,7.395 97.1,7.385 96.94,7.395 C96.78,7.405 96.66,7.42 96.58,7.44 C96.3,7.52 95.93,7.67 95.47,7.89 C95.01,8.11 94.515,8.355 93.985,8.625 C93.455,8.895 92.925,9.175 92.395,9.465 C91.865,9.755 91.4,10.02 91,10.26 C90.84,9.06 90.68,7.92 90.52,6.84 C90.36,5.76 90.2,4.76 90.04,3.84 C89.88,3.34 89.64,2.965 89.32,2.715 C89,2.465 88.69,2.4 88.39,2.52 C88.17,2.62 88.065,2.835 88.075,3.165 C88.085,3.495 88.11,3.8 88.15,4.08 C88.27,4.96 88.405,5.97 88.555,7.11 C88.705,8.25 88.86,9.42 89.02,10.62 C89.18,11.82 89.335,12.98 89.485,14.1 C89.635,15.22 89.77,16.19 89.89,17.01 C89.97,17.35 90.09,17.625 90.25,17.835 C90.41,18.045 90.66,18.18 91,18.24 Z M110.926667,25.3316667 L111.115,25.32 C111.305,25.3 111.48,25.24 111.64,25.14 C112.66,24.5 113.505,23.78 114.175,22.98 C114.845,22.18 115.38,21.315 115.78,20.385 C116.18,19.455 116.465,18.48 116.635,17.46 C116.805,16.44 116.91,15.395 116.95,14.325 C116.99,13.255 116.975,12.17 116.905,11.07 C116.835,9.97 116.77,8.88 116.71,7.8 C116.71,7.58 116.585,7.365 116.335,7.155 C116.085,6.945 115.8,6.86 115.48,6.9 C115.36,6.92 115.245,6.985 115.135,7.095 C115.025,7.205 114.93,7.335 114.85,7.485 C114.77,7.635 114.71,7.79 114.67,7.95 C114.63,8.11 114.61,8.25 114.61,8.37 C114.61,8.93 114.475,9.505 114.205,10.095 C113.935,10.685 113.61,11.22 113.23,11.7 C112.85,12.18 112.455,12.57 112.045,12.87 C111.635,13.17 111.28,13.32 110.98,13.32 C110.72,13.32 110.475,13.15 110.245,12.81 C110.015,12.47 109.8,12.075 109.6,11.625 C109.4,11.175 109.23,10.72 109.09,10.26 C108.95,9.8 108.84,9.46 108.76,9.24 C108.66,9.02 108.48,8.86 108.22,8.76 C107.96,8.66 107.68,8.64 107.38,8.7 C107.16,8.74 107.03,8.85 106.99,9.03 C106.95,9.21 106.95,9.4 106.99,9.6 C107.01,9.76 107.075,10.04 107.185,10.44 C107.295,10.84 107.44,11.29 107.62,11.79 C107.8,12.29 108.015,12.805 108.265,13.335 C108.515,13.865 108.8,14.34 109.12,14.76 C109.4,15.1 109.68,15.33 109.96,15.45 C110.24,15.57 110.52,15.63 110.8,15.63 C111.14,15.63 111.5,15.545 111.88,15.375 C112.26,15.205 112.63,14.995 112.99,14.745 C113.35,14.495 113.69,14.21 114.01,13.89 C114.33,13.57 114.61,13.26 114.85,12.96 C114.97,14.16 114.975,15.265 114.865,16.275 C114.755,17.285 114.52,18.22 114.16,19.08 C113.8,19.94 113.32,20.74 112.72,21.48 C112.12,22.22 111.38,22.92 110.5,23.58 C110.22,23.82 110.02,24.05 109.9,24.27 C109.78,24.49 109.75,24.69 109.81,24.87 C109.85,24.99 109.94,25.085 110.08,25.155 C110.22,25.225 110.38,25.275 110.56,25.305 C110.74,25.335 110.925,25.34 111.115,25.32 L110.926667,25.3316667 Z M123.01,17.07 C123.69,17.07 124.31,16.94 124.87,16.68 C125.43,16.42 125.93,16.08 126.37,15.66 C126.81,15.24 127.2,14.76 127.54,14.22 C127.88,13.68 128.16,13.13 128.38,12.57 C128.54,12.07 128.605,11.53 128.575,10.95 C128.545,10.37 128.42,9.805 128.2,9.255 C127.98,8.705 127.665,8.21 127.255,7.77 C126.845,7.33 126.34,7 125.74,6.78 C125.36,6.62 125.04,6.66 124.78,6.9 C124.42,6.7 124.03,6.545 123.61,6.435 C123.19,6.325 122.84,6.27 122.56,6.27 C122.06,6.27 121.615,6.4 121.225,6.66 C120.835,6.92 120.49,7.255 120.19,7.665 C119.89,8.075 119.645,8.545 119.455,9.075 C119.265,9.605 119.13,10.15 119.05,10.71 C118.93,11.47 118.915,12.23 119.005,12.99 C119.095,13.75 119.3,14.43 119.62,15.03 C119.94,15.63 120.38,16.12 120.94,16.5 C121.5,16.88 122.19,17.07 123.01,17.07 Z M123.55,14.895 C123.17,14.985 122.84,14.99 122.56,14.91 C122.1,14.77 121.755,14.535 121.525,14.205 C121.295,13.875 121.14,13.505 121.06,13.095 C120.98,12.685 120.95,12.27 120.97,11.85 C120.99,11.43 121.03,11.07 121.09,10.77 C121.13,10.59 121.21,10.35 121.33,10.05 C121.45,9.75 121.595,9.455 121.765,9.165 C121.935,8.875 122.135,8.62 122.365,8.4 C122.595,8.18 122.83,8.07 123.07,8.07 C123.29,8.07 123.545,8.185 123.835,8.415 C124.125,8.645 124.38,8.83 124.6,8.97 C124.68,9.01 124.79,9.03 124.93,9.03 C125.07,9.03 125.21,8.98 125.35,8.88 C125.93,9.16 126.315,9.615 126.505,10.245 C126.695,10.875 126.69,11.48 126.49,12.06 C126.31,12.58 126.055,13.04 125.725,13.44 C125.395,13.84 125.045,14.16 124.675,14.4 C124.305,14.64 123.93,14.805 123.55,14.895 Z M138.985,17.64 C139.175,17.72 139.36,17.74 139.54,17.7 C139.76,17.64 139.96,17.47 140.14,17.19 C140.32,16.91 140.38,16.66 140.32,16.44 C140.2,15.9 140.08,15.29 139.96,14.61 C139.84,13.93 139.725,13.23 139.615,12.51 C139.505,11.79 139.41,11.07 139.33,10.35 C139.25,9.63 139.19,8.97 139.15,8.37 C139.15,8.21 139.105,8.055 139.015,7.905 C138.925,7.755 138.825,7.625 138.715,7.515 C138.605,7.405 138.485,7.32 138.355,7.26 C138.225,7.2 138.11,7.18 138.01,7.2 C137.87,7.22 137.695,7.305 137.485,7.455 C137.275,7.605 137.17,7.76 137.17,7.92 C137.17,8.2 137.14,8.47 137.08,8.73 C137.02,8.99 136.95,9.24 136.87,9.48 C136.73,9.96 136.49,10.515 136.15,11.145 C135.81,11.775 135.43,12.36 135.01,12.9 C134.59,13.44 134.16,13.885 133.72,14.235 C133.28,14.585 132.89,14.73 132.55,14.67 C132.35,14.47 132.225,14.13 132.175,13.65 C132.125,13.17 132.125,12.63 132.175,12.03 C132.225,11.43 132.31,10.805 132.43,10.155 C132.55,9.505 132.67,8.91 132.79,8.37 C132.87,8.05 132.785,7.74 132.535,7.44 C132.285,7.14 132.01,6.96 131.71,6.9 C131.55,6.86 131.41,6.905 131.29,7.035 C131.17,7.165 131.09,7.31 131.05,7.47 C130.95,7.85 130.835,8.34 130.705,8.94 C130.575,9.54 130.465,10.175 130.375,10.845 C130.285,11.515 130.235,12.19 130.225,12.87 C130.215,13.55 130.29,14.17 130.45,14.73 C130.87,16.13 131.48,16.88 132.28,16.98 C132.82,17.04 133.345,16.945 133.855,16.695 C134.365,16.445 134.855,16.095 135.325,15.645 C135.795,15.195 136.235,14.695 136.645,14.145 C137.055,13.595 137.41,13.05 137.71,12.51 C137.73,12.79 137.77,13.135 137.83,13.545 C137.89,13.955 137.955,14.385 138.025,14.835 C138.095,15.285 138.175,15.715 138.265,16.125 C138.355,16.535 138.45,16.88 138.55,17.16 C138.65,17.4 138.795,17.56 138.985,17.64 Z M144.34,17.01 C144.64,17.01 144.875,16.825 145.045,16.455 C145.215,16.085 145.3,15.72 145.3,15.36 C145.34,14.6 145.43,13.825 145.57,13.035 C145.71,12.245 145.98,11.47 146.38,10.71 C146.66,10.17 146.975,9.705 147.325,9.315 C147.675,8.925 148.045,8.585 148.435,8.295 C148.825,8.005 149.215,7.75 149.605,7.53 C149.995,7.31 150.37,7.1 150.73,6.9 C150.99,6.72 151.145,6.52 151.195,6.3 C151.245,6.08 151.23,5.92 151.15,5.82 C151.07,5.72 150.93,5.65 150.73,5.61 C150.53,5.57 150.28,5.57 149.98,5.61 C149.28,5.73 148.595,5.97 147.925,6.33 C147.255,6.69 146.655,7.13 146.125,7.65 C145.595,8.17 145.15,8.75 144.79,9.39 C144.43,10.03 144.21,10.69 144.13,11.37 C144.01,10.79 143.89,10.095 143.77,9.285 C143.65,8.475 143.55,7.7 143.47,6.96 C143.43,6.74 143.3,6.58 143.08,6.48 C142.86,6.38 142.63,6.32 142.39,6.3 C142.17,6.28 141.975,6.31 141.805,6.39 C141.635,6.47 141.55,6.65 141.55,6.93 C141.71,8.31 141.9,9.695 142.12,11.085 C142.34,12.475 142.62,13.88 142.96,15.3 C143.04,15.66 143.195,16.035 143.425,16.425 C143.655,16.815 143.96,17.01 144.34,17.01 Z M160.615,17.46 C161.125,17.8 161.7,17.92 162.34,17.82 C162.68,17.76 163.05,17.65 163.45,17.49 C163.85,17.33 164.25,17.145 164.65,16.935 C165.05,16.725 165.43,16.505 165.79,16.275 C166.15,16.045 166.47,15.83 166.75,15.63 C167.15,15.85 167.505,15.955 167.815,15.945 C168.125,15.935 168.34,15.75 168.46,15.39 C168.56,15.13 168.545,14.83 168.415,14.49 C168.285,14.15 167.9,13.76 167.26,13.32 C167.28,12.84 167.29,12.3 167.29,11.7 C167.29,11.1 167.275,10.48 167.245,9.84 C167.215,9.2 167.175,8.565 167.125,7.935 C167.075,7.305 167.01,6.71 166.93,6.15 C166.85,5.63 166.62,5.205 166.24,4.875 C165.86,4.545 165.32,4.39 164.62,4.41 C164.14,4.43 163.66,4.54 163.18,4.74 C162.7,4.94 162.23,5.195 161.77,5.505 C161.31,5.815 160.87,6.16 160.45,6.54 C160.03,6.92 159.65,7.29 159.31,7.65 C159.13,7.89 159.05,8.115 159.07,8.325 C159.09,8.535 159.18,8.72 159.34,8.88 C159.5,9.04 159.695,9.13 159.925,9.15 C160.155,9.17 160.36,9.09 160.54,8.91 C161.12,8.39 161.73,7.9 162.37,7.44 C163.01,6.98 163.57,6.67 164.05,6.51 C164.33,6.41 164.565,6.395 164.755,6.465 C164.945,6.535 165.06,6.72 165.1,7.02 C165.14,7.28 165.175,7.595 165.205,7.965 C165.235,8.335 165.26,8.73 165.28,9.15 C165.3,9.57 165.315,9.985 165.325,10.395 C165.335,10.805 165.34,11.18 165.34,11.52 C165.1,11.28 164.84,11.11 164.56,11.01 C164.28,10.91 164.005,10.855 163.735,10.845 C163.465,10.835 163.205,10.85 162.955,10.89 C162.705,10.93 162.51,10.98 162.37,11.04 C161.81,11.24 161.325,11.52 160.915,11.88 C160.505,12.24 160.18,12.645 159.94,13.095 C159.7,13.545 159.55,14.015 159.49,14.505 C159.43,14.995 159.46,15.47 159.58,15.93 C159.76,16.61 160.105,17.12 160.615,17.46 Z M162.01,15.84 C161.85,15.88 161.705,15.87 161.575,15.81 C161.445,15.75 161.36,15.66 161.32,15.54 C161.22,15.22 161.225,14.895 161.335,14.565 C161.445,14.235 161.615,13.935 161.845,13.665 C162.075,13.395 162.335,13.165 162.625,12.975 C162.915,12.785 163.19,12.66 163.45,12.6 C163.61,12.58 163.785,12.64 163.975,12.78 C164.165,12.92 164.34,13.085 164.5,13.275 C164.66,13.465 164.8,13.655 164.92,13.845 C165.04,14.035 165.1,14.19 165.1,14.31 C164.74,14.65 164.255,14.965 163.645,15.255 C163.035,15.545 162.49,15.74 162.01,15.84 Z M172.315,16.2 C172.865,16.28 173.42,16.275 173.98,16.185 C174.54,16.095 175.095,15.945 175.645,15.735 C176.195,15.525 176.72,15.28 177.22,15 C177.72,14.74 178.12,14.445 178.42,14.115 C178.72,13.785 178.77,13.46 178.57,13.14 C178.41,12.88 178.21,12.76 177.97,12.78 C177.73,12.8 177.47,12.87 177.19,12.99 C176.55,13.39 175.865,13.715 175.135,13.965 C174.405,14.215 173.75,14.33 173.17,14.31 C172.45,14.31 171.92,14.07 171.58,13.59 C171.24,13.11 171.12,12.52 171.22,11.82 C171.28,11.44 171.39,11.06 171.55,10.68 C171.71,10.3 171.915,9.955 172.165,9.645 C172.415,9.335 172.705,9.085 173.035,8.895 C173.365,8.705 173.74,8.61 174.16,8.61 C174.62,8.61 175.01,8.82 175.33,9.24 C175.47,9.46 175.64,9.585 175.84,9.615 C176.04,9.645 176.21,9.62 176.35,9.54 C176.53,9.44 176.64,9.305 176.68,9.135 C176.72,8.965 176.72,8.8 176.68,8.64 C176.46,7.92 176.01,7.425 175.33,7.155 C174.65,6.885 173.94,6.81 173.2,6.93 C172.74,7.01 172.32,7.165 171.94,7.395 C171.56,7.625 171.215,7.9 170.905,8.22 C170.595,8.54 170.33,8.895 170.11,9.285 C169.89,9.675 169.72,10.06 169.6,10.44 C169.3,11.46 169.23,12.45 169.39,13.41 C169.55,14.37 170.01,15.11 170.77,15.63 C171.25,15.93 171.765,16.12 172.315,16.2 Z M182.425,16.2 C182.975,16.28 183.53,16.275 184.09,16.185 C184.65,16.095 185.205,15.945 185.755,15.735 C186.305,15.525 186.83,15.28 187.33,15 C187.83,14.74 188.23,14.445 188.53,14.115 C188.83,13.785 188.88,13.46 188.68,13.14 C188.52,12.88 188.32,12.76 188.08,12.78 C187.84,12.8 187.58,12.87 187.3,12.99 C186.66,13.39 185.975,13.715 185.245,13.965 C184.515,14.215 183.86,14.33 183.28,14.31 C182.56,14.31 182.03,14.07 181.69,13.59 C181.35,13.11 181.23,12.52 181.33,11.82 C181.39,11.44 181.5,11.06 181.66,10.68 C181.82,10.3 182.025,9.955 182.275,9.645 C182.525,9.335 182.815,9.085 183.145,8.895 C183.475,8.705 183.85,8.61 184.27,8.61 C184.73,8.61 185.12,8.82 185.44,9.24 C185.58,9.46 185.75,9.585 185.95,9.615 C186.15,9.645 186.32,9.62 186.46,9.54 C186.64,9.44 186.75,9.305 186.79,9.135 C186.83,8.965 186.83,8.8 186.79,8.64 C186.57,7.92 186.12,7.425 185.44,7.155 C184.76,6.885 184.05,6.81 183.31,6.93 C182.85,7.01 182.43,7.165 182.05,7.395 C181.67,7.625 181.325,7.9 181.015,8.22 C180.705,8.54 180.44,8.895 180.22,9.285 C180,9.675 179.83,10.06 179.71,10.44 C179.41,11.46 179.34,12.45 179.5,13.41 C179.66,14.37 180.12,15.11 180.88,15.63 C181.36,15.93 181.875,16.12 182.425,16.2 Z M193.84,17.07 C194.52,17.07 195.14,16.94 195.7,16.68 C196.26,16.42 196.76,16.08 197.2,15.66 C197.64,15.24 198.03,14.76 198.37,14.22 C198.71,13.68 198.99,13.13 199.21,12.57 C199.37,12.07 199.435,11.53 199.405,10.95 C199.375,10.37 199.25,9.805 199.03,9.255 C198.81,8.705 198.495,8.21 198.085,7.77 C197.675,7.33 197.17,7 196.57,6.78 C196.19,6.62 195.87,6.66 195.61,6.9 C195.25,6.7 194.86,6.545 194.44,6.435 C194.02,6.325 193.67,6.27 193.39,6.27 C192.89,6.27 192.445,6.4 192.055,6.66 C191.665,6.92 191.32,7.255 191.02,7.665 C190.72,8.075 190.475,8.545 190.285,9.075 C190.095,9.605 189.96,10.15 189.88,10.71 C189.76,11.47 189.745,12.23 189.835,12.99 C189.925,13.75 190.13,14.43 190.45,15.03 C190.77,15.63 191.21,16.12 191.77,16.5 C192.33,16.88 193.02,17.07 193.84,17.07 Z M194.38,14.895 C194,14.985 193.67,14.99 193.39,14.91 C192.93,14.77 192.585,14.535 192.355,14.205 C192.125,13.875 191.97,13.505 191.89,13.095 C191.81,12.685 191.78,12.27 191.8,11.85 C191.82,11.43 191.86,11.07 191.92,10.77 C191.96,10.59 192.04,10.35 192.16,10.05 C192.28,9.75 192.425,9.455 192.595,9.165 C192.765,8.875 192.965,8.62 193.195,8.4 C193.425,8.18 193.66,8.07 193.9,8.07 C194.12,8.07 194.375,8.185 194.665,8.415 C194.955,8.645 195.21,8.83 195.43,8.97 C195.51,9.01 195.62,9.03 195.76,9.03 C195.9,9.03 196.04,8.98 196.18,8.88 C196.76,9.16 197.145,9.615 197.335,10.245 C197.525,10.875 197.52,11.48 197.32,12.06 C197.14,12.58 196.885,13.04 196.555,13.44 C196.225,13.84 195.875,14.16 195.505,14.4 C195.135,14.64 194.76,14.805 194.38,14.895 Z M209.815,17.64 C210.005,17.72 210.19,17.74 210.37,17.7 C210.59,17.64 210.79,17.47 210.97,17.19 C211.15,16.91 211.21,16.66 211.15,16.44 C211.03,15.9 210.91,15.29 210.79,14.61 C210.67,13.93 210.555,13.23 210.445,12.51 C210.335,11.79 210.24,11.07 210.16,10.35 C210.08,9.63 210.02,8.97 209.98,8.37 C209.98,8.21 209.935,8.055 209.845,7.905 C209.755,7.755 209.655,7.625 209.545,7.515 C209.435,7.405 209.315,7.32 209.185,7.26 C209.055,7.2 208.94,7.18 208.84,7.2 C208.7,7.22 208.525,7.305 208.315,7.455 C208.105,7.605 208,7.76 208,7.92 C208,8.2 207.97,8.47 207.91,8.73 C207.85,8.99 207.78,9.24 207.7,9.48 C207.56,9.96 207.32,10.515 206.98,11.145 C206.64,11.775 206.26,12.36 205.84,12.9 C205.42,13.44 204.99,13.885 204.55,14.235 C204.11,14.585 203.72,14.73 203.38,14.67 C203.18,14.47 203.055,14.13 203.005,13.65 C202.955,13.17 202.955,12.63 203.005,12.03 C203.055,11.43 203.14,10.805 203.26,10.155 C203.38,9.505 203.5,8.91 203.62,8.37 C203.7,8.05 203.615,7.74 203.365,7.44 C203.115,7.14 202.84,6.96 202.54,6.9 C202.38,6.86 202.24,6.905 202.12,7.035 C202,7.165 201.92,7.31 201.88,7.47 C201.78,7.85 201.665,8.34 201.535,8.94 C201.405,9.54 201.295,10.175 201.205,10.845 C201.115,11.515 201.065,12.19 201.055,12.87 C201.045,13.55 201.12,14.17 201.28,14.73 C201.7,16.13 202.31,16.88 203.11,16.98 C203.65,17.04 204.175,16.945 204.685,16.695 C205.195,16.445 205.685,16.095 206.155,15.645 C206.625,15.195 207.065,14.695 207.475,14.145 C207.885,13.595 208.24,13.05 208.54,12.51 C208.56,12.79 208.6,13.135 208.66,13.545 C208.72,13.955 208.785,14.385 208.855,14.835 C208.925,15.285 209.005,15.715 209.095,16.125 C209.185,16.535 209.28,16.88 209.38,17.16 C209.48,17.4 209.625,17.56 209.815,17.64 Z M214.36,16.35 C214.58,16.43 214.795,16.445 215.005,16.395 C215.215,16.345 215.39,16.25 215.53,16.11 C215.73,15.67 215.945,15.185 216.175,14.655 C216.405,14.125 216.64,13.595 216.88,13.065 C217.12,12.535 217.365,12.015 217.615,11.505 C217.865,10.995 218.11,10.53 218.35,10.11 C218.63,9.59 218.95,9.32 219.31,9.3 C219.61,9.26 219.88,9.47 220.12,9.93 C220.36,10.39 220.575,10.93 220.765,11.55 C220.955,12.17 221.125,12.78 221.275,13.38 C221.425,13.98 221.55,14.4 221.65,14.64 C221.67,14.74 221.75,14.84 221.89,14.94 C222.03,15.04 222.24,15.02 222.52,14.88 C223.12,14.62 223.36,14.22 223.24,13.68 C223.12,13.08 222.97,12.39 222.79,11.61 C222.61,10.83 222.365,10.085 222.055,9.375 C221.745,8.665 221.365,8.07 220.915,7.59 C220.465,7.11 219.91,6.87 219.25,6.87 C218.81,6.87 218.405,7.03 218.035,7.35 C217.665,7.67 217.315,8.075 216.985,8.565 C216.655,9.055 216.35,9.59 216.07,10.17 C215.79,10.75 215.53,11.3 215.29,11.82 C215.25,11.46 215.2,11.08 215.14,10.68 C215.08,10.28 215.01,9.885 214.93,9.495 C214.85,9.105 214.775,8.725 214.705,8.355 C214.635,7.985 214.57,7.65 214.51,7.35 C214.35,6.59 213.92,6.15 213.22,6.03 C212.72,5.97 212.425,6.075 212.335,6.345 C212.245,6.615 212.27,6.98 212.41,7.44 C212.71,8.78 212.955,10.09 213.145,11.37 C213.335,12.65 213.52,14.07 213.7,15.63 C213.7,15.77 213.76,15.91 213.88,16.05 C214,16.19 214.16,16.29 214.36,16.35 Z M228.7768,18.4908 L228.97,18.48 C229.41,18.44 229.915,18.315 230.485,18.105 C231.055,17.895 231.62,17.65 232.18,17.37 C232.74,17.09 233.265,16.795 233.755,16.485 C234.245,16.175 234.64,15.9 234.94,15.66 C235.2,15.4 235.38,15.11 235.48,14.79 C235.58,14.47 235.61,14.2 235.57,13.98 C235.53,13.84 235.425,13.75 235.255,13.71 C235.085,13.67 234.9,13.7 234.7,13.8 C234.26,14.02 233.795,14.255 233.305,14.505 C232.815,14.755 232.315,14.995 231.805,15.225 C231.295,15.455 230.785,15.665 230.275,15.855 C229.765,16.045 229.29,16.18 228.85,16.26 C228.83,16.24 228.82,16.09 228.82,15.81 C228.82,15.53 228.83,15.165 228.85,14.715 C228.87,14.265 228.895,13.75 228.925,13.17 C228.955,12.59 228.99,11.97 229.03,11.31 C229.51,11.27 229.98,11.24 230.44,11.22 C230.9,11.2 231.33,11.19 231.73,11.19 C231.93,11.19 232.195,11.145 232.525,11.055 C232.855,10.965 233.04,10.75 233.08,10.41 C233.08,9.99 232.89,9.68 232.51,9.48 C232.13,9.28 231.75,9.19 231.37,9.21 C231.03,9.23 230.675,9.245 230.305,9.255 C229.935,9.265 229.55,9.29 229.15,9.33 C229.21,8.43 229.275,7.55 229.345,6.69 C229.415,5.83 229.49,5.06 229.57,4.38 C229.57,4.14 229.415,3.925 229.105,3.735 C228.795,3.545 228.47,3.46 228.13,3.48 C227.99,3.48 227.86,3.57 227.74,3.75 C227.62,3.93 227.55,4.14 227.53,4.38 C227.47,5.1 227.4,5.9 227.32,6.78 C227.24,7.66 227.17,8.57 227.11,9.51 C226.11,9.61 225.2,9.73 224.38,9.87 C224.04,9.97 223.82,10.12 223.72,10.32 C223.62,10.52 223.57,10.68 223.57,10.8 C223.57,11.14 223.725,11.37 224.035,11.49 C224.345,11.61 224.63,11.67 224.89,11.67 C225.21,11.63 225.545,11.595 225.895,11.565 C226.245,11.535 226.61,11.5 226.99,11.46 C226.95,12.4 226.915,13.29 226.885,14.13 C226.855,14.97 226.86,15.71 226.9,16.35 C226.94,16.99 227.13,17.52 227.47,17.94 C227.81,18.36 228.31,18.54 228.97,18.48 L228.7768,18.4908 Z M247.9168,18.4908 L248.11,18.48 C248.55,18.44 249.055,18.315 249.625,18.105 C250.195,17.895 250.76,17.65 251.32,17.37 C251.88,17.09 252.405,16.795 252.895,16.485 C253.385,16.175 253.78,15.9 254.08,15.66 C254.34,15.4 254.52,15.11 254.62,14.79 C254.72,14.47 254.75,14.2 254.71,13.98 C254.67,13.84 254.565,13.75 254.395,13.71 C254.225,13.67 254.04,13.7 253.84,13.8 C253.4,14.02 252.935,14.255 252.445,14.505 C251.955,14.755 251.455,14.995 250.945,15.225 C250.435,15.455 249.925,15.665 249.415,15.855 C248.905,16.045 248.43,16.18 247.99,16.26 C247.97,16.24 247.96,16.09 247.96,15.81 C247.96,15.53 247.97,15.165 247.99,14.715 C248.01,14.265 248.035,13.75 248.065,13.17 C248.095,12.59 248.13,11.97 248.17,11.31 C248.65,11.27 249.12,11.24 249.58,11.22 C250.04,11.2 250.47,11.19 250.87,11.19 C251.07,11.19 251.335,11.145 251.665,11.055 C251.995,10.965 252.18,10.75 252.22,10.41 C252.22,9.99 252.03,9.68 251.65,9.48 C251.27,9.28 250.89,9.19 250.51,9.21 C250.17,9.23 249.815,9.245 249.445,9.255 C249.075,9.265 248.69,9.29 248.29,9.33 C248.35,8.43 248.415,7.55 248.485,6.69 C248.555,5.83 248.63,5.06 248.71,4.38 C248.71,4.14 248.555,3.925 248.245,3.735 C247.935,3.545 247.61,3.46 247.27,3.48 C247.13,3.48 247,3.57 246.88,3.75 C246.76,3.93 246.69,4.14 246.67,4.38 C246.61,5.1 246.54,5.9 246.46,6.78 C246.38,7.66 246.31,8.57 246.25,9.51 C245.25,9.61 244.34,9.73 243.52,9.87 C243.18,9.97 242.96,10.12 242.86,10.32 C242.76,10.52 242.71,10.68 242.71,10.8 C242.71,11.14 242.865,11.37 243.175,11.49 C243.485,11.61 243.77,11.67 244.03,11.67 C244.35,11.63 244.685,11.595 245.035,11.565 C245.385,11.535 245.75,11.5 246.13,11.46 C246.09,12.4 246.055,13.29 246.025,14.13 C245.995,14.97 246,15.71 246.04,16.35 C246.08,16.99 246.27,17.52 246.61,17.94 C246.95,18.36 247.45,18.54 248.11,18.48 L247.9168,18.4908 Z M259.36,17.07 C260.04,17.07 260.66,16.94 261.22,16.68 C261.78,16.42 262.28,16.08 262.72,15.66 C263.16,15.24 263.55,14.76 263.89,14.22 C264.23,13.68 264.51,13.13 264.73,12.57 C264.89,12.07 264.955,11.53 264.925,10.95 C264.895,10.37 264.77,9.805 264.55,9.255 C264.33,8.705 264.015,8.21 263.605,7.77 C263.195,7.33 262.69,7 262.09,6.78 C261.71,6.62 261.39,6.66 261.13,6.9 C260.77,6.7 260.38,6.545 259.96,6.435 C259.54,6.325 259.19,6.27 258.91,6.27 C258.41,6.27 257.965,6.4 257.575,6.66 C257.185,6.92 256.84,7.255 256.54,7.665 C256.24,8.075 255.995,8.545 255.805,9.075 C255.615,9.605 255.48,10.15 255.4,10.71 C255.28,11.47 255.265,12.23 255.355,12.99 C255.445,13.75 255.65,14.43 255.97,15.03 C256.29,15.63 256.73,16.12 257.29,16.5 C257.85,16.88 258.54,17.07 259.36,17.07 Z M259.9,14.895 C259.52,14.985 259.19,14.99 258.91,14.91 C258.45,14.77 258.105,14.535 257.875,14.205 C257.645,13.875 257.49,13.505 257.41,13.095 C257.33,12.685 257.3,12.27 257.32,11.85 C257.34,11.43 257.38,11.07 257.44,10.77 C257.48,10.59 257.56,10.35 257.68,10.05 C257.8,9.75 257.945,9.455 258.115,9.165 C258.285,8.875 258.485,8.62 258.715,8.4 C258.945,8.18 259.18,8.07 259.42,8.07 C259.64,8.07 259.895,8.185 260.185,8.415 C260.475,8.645 260.73,8.83 260.95,8.97 C261.03,9.01 261.14,9.03 261.28,9.03 C261.42,9.03 261.56,8.98 261.7,8.88 C262.28,9.16 262.665,9.615 262.855,10.245 C263.045,10.875 263.04,11.48 262.84,12.06 C262.66,12.58 262.405,13.04 262.075,13.44 C261.745,13.84 261.395,14.16 261.025,14.4 C260.655,14.64 260.28,14.805 259.9,14.895 Z M276.88,18.24 C277.2,18.26 277.43,18.15 277.57,17.91 C277.71,17.67 277.72,17.36 277.6,16.98 C277.54,16.28 277.475,15.58 277.405,14.88 C277.335,14.18 277.26,13.48 277.18,12.78 C277.6,13.06 278.065,13.365 278.575,13.695 C279.085,14.025 279.61,14.355 280.15,14.685 C280.69,15.015 281.22,15.335 281.74,15.645 C282.26,15.955 282.74,16.22 283.18,16.44 C283.42,16.56 283.675,16.59 283.945,16.53 C284.215,16.47 284.41,16.37 284.53,16.23 C284.79,15.95 284.72,15.64 284.32,15.3 C283.88,14.94 283.41,14.575 282.91,14.205 C282.41,13.835 281.91,13.485 281.41,13.155 C280.91,12.825 280.425,12.51 279.955,12.21 C279.485,11.91 279.07,11.64 278.71,11.4 C279.29,11.04 279.99,10.635 280.81,10.185 C281.63,9.735 282.42,9.33 283.18,8.97 C283.46,8.83 283.655,8.665 283.765,8.475 C283.875,8.285 283.91,8.07 283.87,7.83 C283.85,7.73 283.785,7.645 283.675,7.575 C283.565,7.505 283.435,7.455 283.285,7.425 C283.135,7.395 282.98,7.385 282.82,7.395 C282.66,7.405 282.54,7.42 282.46,7.44 C282.18,7.52 281.81,7.67 281.35,7.89 C280.89,8.11 280.395,8.355 279.865,8.625 C279.335,8.895 278.805,9.175 278.275,9.465 C277.745,9.755 277.28,10.02 276.88,10.26 C276.72,9.06 276.56,7.92 276.4,6.84 C276.24,5.76 276.08,4.76 275.92,3.84 C275.76,3.34 275.52,2.965 275.2,2.715 C274.88,2.465 274.57,2.4 274.27,2.52 C274.05,2.62 273.945,2.835 273.955,3.165 C273.965,3.495 273.99,3.8 274.03,4.08 C274.15,4.96 274.285,5.97 274.435,7.11 C274.585,8.25 274.74,9.42 274.9,10.62 C275.06,11.82 275.215,12.98 275.365,14.1 C275.515,15.22 275.65,16.19 275.77,17.01 C275.85,17.35 275.97,17.625 276.13,17.835 C276.29,18.045 276.54,18.18 276.88,18.24 Z M288.7,15.78 C289.38,15.96 290.04,15.99 290.68,15.87 C291.42,15.75 292.09,15.465 292.69,15.015 C293.29,14.565 293.75,14.02 294.07,13.38 C294.15,12.88 294.05,12.58 293.77,12.48 C293.67,12.44 293.52,12.445 293.32,12.495 C293.12,12.545 292.93,12.65 292.75,12.81 C292.57,12.97 292.36,13.13 292.12,13.29 C291.88,13.45 291.615,13.595 291.325,13.725 C291.035,13.855 290.725,13.95 290.395,14.01 C290.065,14.07 289.74,14.08 289.42,14.04 C288.88,13.96 288.43,13.715 288.07,13.305 C287.71,12.895 287.51,12.34 287.47,11.64 C288.51,11.64 289.48,11.515 290.38,11.265 C291.28,11.015 292.12,10.66 292.9,10.2 C293.24,9.98 293.445,9.73 293.515,9.45 C293.585,9.17 293.54,8.84 293.38,8.46 C293.1,7.78 292.61,7.25 291.91,6.87 C291.21,6.49 290.43,6.33 289.57,6.39 C288.85,6.43 288.22,6.59 287.68,6.87 C287.14,7.15 286.69,7.505 286.33,7.935 C285.97,8.365 285.705,8.86 285.535,9.42 C285.365,9.98 285.31,10.57 285.37,11.19 C285.43,11.85 285.58,12.49 285.82,13.11 C286.06,13.73 286.41,14.27 286.87,14.73 C287.41,15.25 288.02,15.6 288.7,15.78 Z M287.41,9.9 C287.43,9.66 287.515,9.445 287.665,9.255 C287.815,9.065 287.985,8.895 288.175,8.745 C288.365,8.595 288.575,8.47 288.805,8.37 C289.035,8.27 289.25,8.2 289.45,8.16 C289.89,8.08 290.325,8.085 290.755,8.175 C291.185,8.265 291.48,8.5 291.64,8.88 C291.42,9.02 291.145,9.15 290.815,9.27 C290.485,9.39 290.125,9.495 289.735,9.585 C289.345,9.675 288.945,9.75 288.535,9.81 C288.125,9.87 287.75,9.9 287.41,9.9 Z M298.48,15.78 C299.16,15.96 299.82,15.99 300.46,15.87 C301.2,15.75 301.87,15.465 302.47,15.015 C303.07,14.565 303.53,14.02 303.85,13.38 C303.93,12.88 303.83,12.58 303.55,12.48 C303.45,12.44 303.3,12.445 303.1,12.495 C302.9,12.545 302.71,12.65 302.53,12.81 C302.35,12.97 302.14,13.13 301.9,13.29 C301.66,13.45 301.395,13.595 301.105,13.725 C300.815,13.855 300.505,13.95 300.175,14.01 C299.845,14.07 299.52,14.08 299.2,14.04 C298.66,13.96 298.21,13.715 297.85,13.305 C297.49,12.895 297.29,12.34 297.25,11.64 C298.29,11.64 299.26,11.515 300.16,11.265 C301.06,11.015 301.9,10.66 302.68,10.2 C303.02,9.98 303.225,9.73 303.295,9.45 C303.365,9.17 303.32,8.84 303.16,8.46 C302.88,7.78 302.39,7.25 301.69,6.87 C300.99,6.49 300.21,6.33 299.35,6.39 C298.63,6.43 298,6.59 297.46,6.87 C296.92,7.15 296.47,7.505 296.11,7.935 C295.75,8.365 295.485,8.86 295.315,9.42 C295.145,9.98 295.09,10.57 295.15,11.19 C295.21,11.85 295.36,12.49 295.6,13.11 C295.84,13.73 296.19,14.27 296.65,14.73 C297.19,15.25 297.8,15.6 298.48,15.78 Z M297.19,9.9 C297.21,9.66 297.295,9.445 297.445,9.255 C297.595,9.065 297.765,8.895 297.955,8.745 C298.145,8.595 298.355,8.47 298.585,8.37 C298.815,8.27 299.03,8.2 299.23,8.16 C299.67,8.08 300.105,8.085 300.535,8.175 C300.965,8.265 301.26,8.5 301.42,8.88 C301.2,9.02 300.925,9.15 300.595,9.27 C300.265,9.39 299.905,9.495 299.515,9.585 C299.125,9.675 298.725,9.75 298.315,9.81 C297.905,9.87 297.53,9.9 297.19,9.9 Z M309.4,21.39 C309.62,21.41 309.82,21.325 310,21.135 C310.18,20.945 310.28,20.74 310.3,20.52 C310.32,19.72 310.31,18.79 310.27,17.73 C310.23,16.67 310.16,15.6 310.06,14.52 C310.72,14.12 311.375,13.665 312.025,13.155 C312.675,12.645 313.225,12.075 313.675,11.445 C314.125,10.815 314.425,10.115 314.575,9.345 C314.725,8.575 314.63,7.73 314.29,6.81 C314.01,6.25 313.645,5.825 313.195,5.535 C312.745,5.245 312.24,5.055 311.68,4.965 C311.12,4.875 310.535,4.865 309.925,4.935 C309.315,5.005 308.715,5.125 308.125,5.295 C307.535,5.465 306.975,5.665 306.445,5.895 C305.915,6.125 305.46,6.35 305.08,6.57 C304.64,6.85 304.315,7.15 304.105,7.47 C303.895,7.79 303.88,8.15 304.06,8.55 C304.14,8.71 304.315,8.805 304.585,8.835 C304.855,8.865 305.13,8.8 305.41,8.64 C305.83,8.42 306.265,8.2 306.715,7.98 C307.165,7.76 307.625,7.57 308.095,7.41 C308.565,7.25 309.045,7.12 309.535,7.02 C310.025,6.92 310.52,6.88 311.02,6.9 C311.58,6.92 311.99,7.065 312.25,7.335 C312.51,7.605 312.66,7.91 312.7,8.25 C312.76,8.65 312.72,9.035 312.58,9.405 C312.44,9.775 312.235,10.13 311.965,10.47 C311.695,10.81 311.375,11.13 311.005,11.43 C310.635,11.73 310.24,12.01 309.82,12.27 C309.76,11.69 309.695,11.155 309.625,10.665 C309.555,10.175 309.49,9.74 309.43,9.36 C309.31,8.96 309.085,8.63 308.755,8.37 C308.425,8.11 308.13,8.03 307.87,8.13 C307.71,8.21 307.6,8.295 307.54,8.385 C307.48,8.475 307.43,8.57 307.39,8.67 C307.35,8.77 307.34,8.88 307.36,9 C307.46,9.68 307.555,10.38 307.645,11.1 C307.735,11.82 307.83,12.55 307.93,13.29 C307.53,13.53 307.24,13.78 307.06,14.04 C306.88,14.3 306.86,14.6 307,14.94 C307.08,15.14 307.225,15.285 307.435,15.375 C307.645,15.465 307.88,15.49 308.14,15.45 C308.2,16.33 308.25,17.185 308.29,18.015 C308.33,18.845 308.35,19.64 308.35,20.4 C308.35,20.56 308.44,20.76 308.62,21 C308.8,21.24 309.06,21.37 309.4,21.39 Z M327.7768,18.4908 L327.97,18.48 C328.41,18.44 328.915,18.315 329.485,18.105 C330.055,17.895 330.62,17.65 331.18,17.37 C331.74,17.09 332.265,16.795 332.755,16.485 C333.245,16.175 333.64,15.9 333.94,15.66 C334.2,15.4 334.38,15.11 334.48,14.79 C334.58,14.47 334.61,14.2 334.57,13.98 C334.53,13.84 334.425,13.75 334.255,13.71 C334.085,13.67 333.9,13.7 333.7,13.8 C333.26,14.02 332.795,14.255 332.305,14.505 C331.815,14.755 331.315,14.995 330.805,15.225 C330.295,15.455 329.785,15.665 329.275,15.855 C328.765,16.045 328.29,16.18 327.85,16.26 C327.83,16.24 327.82,16.09 327.82,15.81 C327.82,15.53 327.83,15.165 327.85,14.715 C327.87,14.265 327.895,13.75 327.925,13.17 C327.955,12.59 327.99,11.97 328.03,11.31 C328.51,11.27 328.98,11.24 329.44,11.22 C329.9,11.2 330.33,11.19 330.73,11.19 C330.93,11.19 331.195,11.145 331.525,11.055 C331.855,10.965 332.04,10.75 332.08,10.41 C332.08,9.99 331.89,9.68 331.51,9.48 C331.13,9.28 330.75,9.19 330.37,9.21 C330.03,9.23 329.675,9.245 329.305,9.255 C328.935,9.265 328.55,9.29 328.15,9.33 C328.21,8.43 328.275,7.55 328.345,6.69 C328.415,5.83 328.49,5.06 328.57,4.38 C328.57,4.14 328.415,3.925 328.105,3.735 C327.795,3.545 327.47,3.46 327.13,3.48 C326.99,3.48 326.86,3.57 326.74,3.75 C326.62,3.93 326.55,4.14 326.53,4.38 C326.47,5.1 326.4,5.9 326.32,6.78 C326.24,7.66 326.17,8.57 326.11,9.51 C325.11,9.61 324.2,9.73 323.38,9.87 C323.04,9.97 322.82,10.12 322.72,10.32 C322.62,10.52 322.57,10.68 322.57,10.8 C322.57,11.14 322.725,11.37 323.035,11.49 C323.345,11.61 323.63,11.67 323.89,11.67 C324.21,11.63 324.545,11.595 324.895,11.565 C325.245,11.535 325.61,11.5 325.99,11.46 C325.95,12.4 325.915,13.29 325.885,14.13 C325.855,14.97 325.86,15.71 325.9,16.35 C325.94,16.99 326.13,17.52 326.47,17.94 C326.81,18.36 327.31,18.54 327.97,18.48 L327.7768,18.4908 Z M337.63,17.01 C337.93,17.01 338.165,16.825 338.335,16.455 C338.505,16.085 338.59,15.72 338.59,15.36 C338.63,14.6 338.72,13.825 338.86,13.035 C339,12.245 339.27,11.47 339.67,10.71 C339.95,10.17 340.265,9.705 340.615,9.315 C340.965,8.925 341.335,8.585 341.725,8.295 C342.115,8.005 342.505,7.75 342.895,7.53 C343.285,7.31 343.66,7.1 344.02,6.9 C344.28,6.72 344.435,6.52 344.485,6.3 C344.535,6.08 344.52,5.92 344.44,5.82 C344.36,5.72 344.22,5.65 344.02,5.61 C343.82,5.57 343.57,5.57 343.27,5.61 C342.57,5.73 341.885,5.97 341.215,6.33 C340.545,6.69 339.945,7.13 339.415,7.65 C338.885,8.17 338.44,8.75 338.08,9.39 C337.72,10.03 337.5,10.69 337.42,11.37 C337.3,10.79 337.18,10.095 337.06,9.285 C336.94,8.475 336.84,7.7 336.76,6.96 C336.72,6.74 336.59,6.58 336.37,6.48 C336.15,6.38 335.92,6.32 335.68,6.3 C335.46,6.28 335.265,6.31 335.095,6.39 C334.925,6.47 334.84,6.65 334.84,6.93 C335,8.31 335.19,9.695 335.41,11.085 C335.63,12.475 335.91,13.88 336.25,15.3 C336.33,15.66 336.485,16.035 336.715,16.425 C336.945,16.815 337.25,17.01 337.63,17.01 Z M346.255,17.46 C346.765,17.8 347.34,17.92 347.98,17.82 C348.32,17.76 348.69,17.65 349.09,17.49 C349.49,17.33 349.89,17.145 350.29,16.935 C350.69,16.725 351.07,16.505 351.43,16.275 C351.79,16.045 352.11,15.83 352.39,15.63 C352.79,15.85 353.145,15.955 353.455,15.945 C353.765,15.935 353.98,15.75 354.1,15.39 C354.2,15.13 354.185,14.83 354.055,14.49 C353.925,14.15 353.54,13.76 352.9,13.32 C352.92,12.84 352.93,12.3 352.93,11.7 C352.93,11.1 352.915,10.48 352.885,9.84 C352.855,9.2 352.815,8.565 352.765,7.935 C352.715,7.305 352.65,6.71 352.57,6.15 C352.49,5.63 352.26,5.205 351.88,4.875 C351.5,4.545 350.96,4.39 350.26,4.41 C349.78,4.43 349.3,4.54 348.82,4.74 C348.34,4.94 347.87,5.195 347.41,5.505 C346.95,5.815 346.51,6.16 346.09,6.54 C345.67,6.92 345.29,7.29 344.95,7.65 C344.77,7.89 344.69,8.115 344.71,8.325 C344.73,8.535 344.82,8.72 344.98,8.88 C345.14,9.04 345.335,9.13 345.565,9.15 C345.795,9.17 346,9.09 346.18,8.91 C346.76,8.39 347.37,7.9 348.01,7.44 C348.65,6.98 349.21,6.67 349.69,6.51 C349.97,6.41 350.205,6.395 350.395,6.465 C350.585,6.535 350.7,6.72 350.74,7.02 C350.78,7.28 350.815,7.595 350.845,7.965 C350.875,8.335 350.9,8.73 350.92,9.15 C350.94,9.57 350.955,9.985 350.965,10.395 C350.975,10.805 350.98,11.18 350.98,11.52 C350.74,11.28 350.48,11.11 350.2,11.01 C349.92,10.91 349.645,10.855 349.375,10.845 C349.105,10.835 348.845,10.85 348.595,10.89 C348.345,10.93 348.15,10.98 348.01,11.04 C347.45,11.24 346.965,11.52 346.555,11.88 C346.145,12.24 345.82,12.645 345.58,13.095 C345.34,13.545 345.19,14.015 345.13,14.505 C345.07,14.995 345.1,15.47 345.22,15.93 C345.4,16.61 345.745,17.12 346.255,17.46 Z M347.65,15.84 C347.49,15.88 347.345,15.87 347.215,15.81 C347.085,15.75 347,15.66 346.96,15.54 C346.86,15.22 346.865,14.895 346.975,14.565 C347.085,14.235 347.255,13.935 347.485,13.665 C347.715,13.395 347.975,13.165 348.265,12.975 C348.555,12.785 348.83,12.66 349.09,12.6 C349.25,12.58 349.425,12.64 349.615,12.78 C349.805,12.92 349.98,13.085 350.14,13.275 C350.3,13.465 350.44,13.655 350.56,13.845 C350.68,14.035 350.74,14.19 350.74,14.31 C350.38,14.65 349.895,14.965 349.285,15.255 C348.675,15.545 348.13,15.74 347.65,15.84 Z M357.955,16.2 C358.505,16.28 359.06,16.275 359.62,16.185 C360.18,16.095 360.735,15.945 361.285,15.735 C361.835,15.525 362.36,15.28 362.86,15 C363.36,14.74 363.76,14.445 364.06,14.115 C364.36,13.785 364.41,13.46 364.21,13.14 C364.05,12.88 363.85,12.76 363.61,12.78 C363.37,12.8 363.11,12.87 362.83,12.99 C362.19,13.39 361.505,13.715 360.775,13.965 C360.045,14.215 359.39,14.33 358.81,14.31 C358.09,14.31 357.56,14.07 357.22,13.59 C356.88,13.11 356.76,12.52 356.86,11.82 C356.92,11.44 357.03,11.06 357.19,10.68 C357.35,10.3 357.555,9.955 357.805,9.645 C358.055,9.335 358.345,9.085 358.675,8.895 C359.005,8.705 359.38,8.61 359.8,8.61 C360.26,8.61 360.65,8.82 360.97,9.24 C361.11,9.46 361.28,9.585 361.48,9.615 C361.68,9.645 361.85,9.62 361.99,9.54 C362.17,9.44 362.28,9.305 362.32,9.135 C362.36,8.965 362.36,8.8 362.32,8.64 C362.1,7.92 361.65,7.425 360.97,7.155 C360.29,6.885 359.58,6.81 358.84,6.93 C358.38,7.01 357.96,7.165 357.58,7.395 C357.2,7.625 356.855,7.9 356.545,8.22 C356.235,8.54 355.97,8.895 355.75,9.285 C355.53,9.675 355.36,10.06 355.24,10.44 C354.94,11.46 354.87,12.45 355.03,13.41 C355.19,14.37 355.65,15.11 356.41,15.63 C356.89,15.93 357.405,16.12 357.955,16.2 Z M367.87,18.24 C368.19,18.26 368.42,18.15 368.56,17.91 C368.7,17.67 368.71,17.36 368.59,16.98 C368.53,16.28 368.465,15.58 368.395,14.88 C368.325,14.18 368.25,13.48 368.17,12.78 C368.59,13.06 369.055,13.365 369.565,13.695 C370.075,14.025 370.6,14.355 371.14,14.685 C371.68,15.015 372.21,15.335 372.73,15.645 C373.25,15.955 373.73,16.22 374.17,16.44 C374.41,16.56 374.665,16.59 374.935,16.53 C375.205,16.47 375.4,16.37 375.52,16.23 C375.78,15.95 375.71,15.64 375.31,15.3 C374.87,14.94 374.4,14.575 373.9,14.205 C373.4,13.835 372.9,13.485 372.4,13.155 C371.9,12.825 371.415,12.51 370.945,12.21 C370.475,11.91 370.06,11.64 369.7,11.4 C370.28,11.04 370.98,10.635 371.8,10.185 C372.62,9.735 373.41,9.33 374.17,8.97 C374.45,8.83 374.645,8.665 374.755,8.475 C374.865,8.285 374.9,8.07 374.86,7.83 C374.84,7.73 374.775,7.645 374.665,7.575 C374.555,7.505 374.425,7.455 374.275,7.425 C374.125,7.395 373.97,7.385 373.81,7.395 C373.65,7.405 373.53,7.42 373.45,7.44 C373.17,7.52 372.8,7.67 372.34,7.89 C371.88,8.11 371.385,8.355 370.855,8.625 C370.325,8.895 369.795,9.175 369.265,9.465 C368.735,9.755 368.27,10.02 367.87,10.26 C367.71,9.06 367.55,7.92 367.39,6.84 C367.23,5.76 367.07,4.76 366.91,3.84 C366.75,3.34 366.51,2.965 366.19,2.715 C365.87,2.465 365.56,2.4 365.26,2.52 C365.04,2.62 364.935,2.835 364.945,3.165 C364.955,3.495 364.98,3.8 365.02,4.08 C365.14,4.96 365.275,5.97 365.425,7.11 C365.575,8.25 365.73,9.42 365.89,10.62 C366.05,11.82 366.205,12.98 366.355,14.1 C366.505,15.22 366.64,16.19 366.76,17.01 C366.84,17.35 366.96,17.625 367.12,17.835 C367.28,18.045 367.53,18.18 367.87,18.24 Z M388.45,17.07 C389.13,17.07 389.75,16.94 390.31,16.68 C390.87,16.42 391.37,16.08 391.81,15.66 C392.25,15.24 392.64,14.76 392.98,14.22 C393.32,13.68 393.6,13.13 393.82,12.57 C393.98,12.07 394.045,11.53 394.015,10.95 C393.985,10.37 393.86,9.805 393.64,9.255 C393.42,8.705 393.105,8.21 392.695,7.77 C392.285,7.33 391.78,7 391.18,6.78 C390.8,6.62 390.48,6.66 390.22,6.9 C389.86,6.7 389.47,6.545 389.05,6.435 C388.63,6.325 388.28,6.27 388,6.27 C387.5,6.27 387.055,6.4 386.665,6.66 C386.275,6.92 385.93,7.255 385.63,7.665 C385.33,8.075 385.085,8.545 384.895,9.075 C384.705,9.605 384.57,10.15 384.49,10.71 C384.37,11.47 384.355,12.23 384.445,12.99 C384.535,13.75 384.74,14.43 385.06,15.03 C385.38,15.63 385.82,16.12 386.38,16.5 C386.94,16.88 387.63,17.07 388.45,17.07 Z M388.99,14.895 C388.61,14.985 388.28,14.99 388,14.91 C387.54,14.77 387.195,14.535 386.965,14.205 C386.735,13.875 386.58,13.505 386.5,13.095 C386.42,12.685 386.39,12.27 386.41,11.85 C386.43,11.43 386.47,11.07 386.53,10.77 C386.57,10.59 386.65,10.35 386.77,10.05 C386.89,9.75 387.035,9.455 387.205,9.165 C387.375,8.875 387.575,8.62 387.805,8.4 C388.035,8.18 388.27,8.07 388.51,8.07 C388.73,8.07 388.985,8.185 389.275,8.415 C389.565,8.645 389.82,8.83 390.04,8.97 C390.12,9.01 390.23,9.03 390.37,9.03 C390.51,9.03 390.65,8.98 390.79,8.88 C391.37,9.16 391.755,9.615 391.945,10.245 C392.135,10.875 392.13,11.48 391.93,12.06 C391.75,12.58 391.495,13.04 391.165,13.44 C390.835,13.84 390.485,14.16 390.115,14.4 C389.745,14.64 389.37,14.805 388.99,14.895 Z M400.57,19.29 C400.85,19.39 401.11,19.3 401.35,19.02 C401.59,18.74 401.79,18.37 401.95,17.91 C402.05,17.59 402.13,17.26 402.19,16.92 C402.25,16.58 402.24,16.26 402.16,15.96 C402,15.42 401.785,14.745 401.515,13.935 C401.245,13.125 400.95,12.27 400.63,11.37 C401.11,11.33 401.57,11.285 402.01,11.235 C402.45,11.185 402.87,11.14 403.27,11.1 C403.45,11.08 403.635,11.05 403.825,11.01 C404.015,10.97 404.185,10.905 404.335,10.815 C404.485,10.725 404.6,10.615 404.68,10.485 C404.76,10.355 404.77,10.19 404.71,9.99 C404.47,9.75 404.16,9.57 403.78,9.45 C403.4,9.33 402.99,9.25 402.55,9.21 C401.75,9.17 400.87,9.2 399.91,9.3 C399.69,8.66 399.49,8.05 399.31,7.47 C399.13,6.89 398.97,6.35 398.83,5.85 C398.67,5.25 398.605,4.75 398.635,4.35 C398.665,3.95 398.75,3.625 398.89,3.375 C399.03,3.125 399.195,2.94 399.385,2.82 C399.575,2.7 399.74,2.63 399.88,2.61 C400.18,2.57 400.46,2.595 400.72,2.685 C400.98,2.775 401.225,2.905 401.455,3.075 C401.685,3.245 401.905,3.445 402.115,3.675 C402.325,3.905 402.52,4.13 402.7,4.35 C402.78,4.45 402.94,4.515 403.18,4.545 C403.42,4.575 403.64,4.49 403.84,4.29 C403.98,4.15 404.045,3.995 404.035,3.825 C404.025,3.655 403.98,3.46 403.9,3.24 C403.68,2.76 403.39,2.34 403.03,1.98 C402.67,1.62 402.27,1.33 401.83,1.11 C401.39,0.89 400.925,0.76 400.435,0.72 C399.945,0.68 399.45,0.74 398.95,0.9 C397.73,1.3 396.99,1.96 396.73,2.88 C396.47,3.8 396.51,4.9 396.85,6.18 L396.85,6.18 L397.96,9.54 C397.54,9.6 397.125,9.665 396.715,9.735 C396.305,9.805 395.92,9.88 395.56,9.96 C395.18,10.04 394.97,10.175 394.93,10.365 C394.89,10.555 394.9,10.75 394.96,10.95 C395.1,11.35 395.355,11.6 395.725,11.7 C396.095,11.8 396.42,11.83 396.7,11.79 C397.04,11.75 397.37,11.715 397.69,11.685 C398.01,11.655 398.33,11.62 398.65,11.58 L398.65,11.58 L399.91,15.24 L399.91,15.24 L399.9412,15.3672 C399.9604,15.4464 399.985,15.549 400.015,15.675 C400.065,15.885 400.105,16.125 400.135,16.395 C400.165,16.665 400.18,16.96 400.18,17.28 C400.18,17.6 400.16,17.92 400.12,18.24 C400.08,18.52 400.09,18.74 400.15,18.9 C400.21,19.06 400.35,19.19 400.57,19.29 Z M417.196667,25.3316667 L417.385,25.32 C417.575,25.3 417.75,25.24 417.91,25.14 C418.93,24.5 419.775,23.78 420.445,22.98 C421.115,22.18 421.65,21.315 422.05,20.385 C422.45,19.455 422.735,18.48 422.905,17.46 C423.075,16.44 423.18,15.395 423.22,14.325 C423.26,13.255 423.245,12.17 423.175,11.07 C423.105,9.97 423.04,8.88 422.98,7.8 C422.98,7.58 422.855,7.365 422.605,7.155 C422.355,6.945 422.07,6.86 421.75,6.9 C421.63,6.92 421.515,6.985 421.405,7.095 C421.295,7.205 421.2,7.335 421.12,7.485 C421.04,7.635 420.98,7.79 420.94,7.95 C420.9,8.11 420.88,8.25 420.88,8.37 C420.88,8.93 420.745,9.505 420.475,10.095 C420.205,10.685 419.88,11.22 419.5,11.7 C419.12,12.18 418.725,12.57 418.315,12.87 C417.905,13.17 417.55,13.32 417.25,13.32 C416.99,13.32 416.745,13.15 416.515,12.81 C416.285,12.47 416.07,12.075 415.87,11.625 C415.67,11.175 415.5,10.72 415.36,10.26 C415.22,9.8 415.11,9.46 415.03,9.24 C414.93,9.02 414.75,8.86 414.49,8.76 C414.23,8.66 413.95,8.64 413.65,8.7 C413.43,8.74 413.3,8.85 413.26,9.03 C413.22,9.21 413.22,9.4 413.26,9.6 C413.28,9.76 413.345,10.04 413.455,10.44 C413.565,10.84 413.71,11.29 413.89,11.79 C414.07,12.29 414.285,12.805 414.535,13.335 C414.785,13.865 415.07,14.34 415.39,14.76 C415.67,15.1 415.95,15.33 416.23,15.45 C416.51,15.57 416.79,15.63 417.07,15.63 C417.41,15.63 417.77,15.545 418.15,15.375 C418.53,15.205 418.9,14.995 419.26,14.745 C419.62,14.495 419.96,14.21 420.28,13.89 C420.6,13.57 420.88,13.26 421.12,12.96 C421.24,14.16 421.245,15.265 421.135,16.275 C421.025,17.285 420.79,18.22 420.43,19.08 C420.07,19.94 419.59,20.74 418.99,21.48 C418.39,22.22 417.65,22.92 416.77,23.58 C416.49,23.82 416.29,24.05 416.17,24.27 C416.05,24.49 416.02,24.69 416.08,24.87 C416.12,24.99 416.21,25.085 416.35,25.155 C416.49,25.225 416.65,25.275 416.83,25.305 C417.01,25.335 417.195,25.34 417.385,25.32 L417.196667,25.3316667 Z M429.28,17.07 C429.96,17.07 430.58,16.94 431.14,16.68 C431.7,16.42 432.2,16.08 432.64,15.66 C433.08,15.24 433.47,14.76 433.81,14.22 C434.15,13.68 434.43,13.13 434.65,12.57 C434.81,12.07 434.875,11.53 434.845,10.95 C434.815,10.37 434.69,9.805 434.47,9.255 C434.25,8.705 433.935,8.21 433.525,7.77 C433.115,7.33 432.61,7 432.01,6.78 C431.63,6.62 431.31,6.66 431.05,6.9 C430.69,6.7 430.3,6.545 429.88,6.435 C429.46,6.325 429.11,6.27 428.83,6.27 C428.33,6.27 427.885,6.4 427.495,6.66 C427.105,6.92 426.76,7.255 426.46,7.665 C426.16,8.075 425.915,8.545 425.725,9.075 C425.535,9.605 425.4,10.15 425.32,10.71 C425.2,11.47 425.185,12.23 425.275,12.99 C425.365,13.75 425.57,14.43 425.89,15.03 C426.21,15.63 426.65,16.12 427.21,16.5 C427.77,16.88 428.46,17.07 429.28,17.07 Z M429.82,14.895 C429.44,14.985 429.11,14.99 428.83,14.91 C428.37,14.77 428.025,14.535 427.795,14.205 C427.565,13.875 427.41,13.505 427.33,13.095 C427.25,12.685 427.22,12.27 427.24,11.85 C427.26,11.43 427.3,11.07 427.36,10.77 C427.4,10.59 427.48,10.35 427.6,10.05 C427.72,9.75 427.865,9.455 428.035,9.165 C428.205,8.875 428.405,8.62 428.635,8.4 C428.865,8.18 429.1,8.07 429.34,8.07 C429.56,8.07 429.815,8.185 430.105,8.415 C430.395,8.645 430.65,8.83 430.87,8.97 C430.95,9.01 431.06,9.03 431.2,9.03 C431.34,9.03 431.48,8.98 431.62,8.88 C432.2,9.16 432.585,9.615 432.775,10.245 C432.965,10.875 432.96,11.48 432.76,12.06 C432.58,12.58 432.325,13.04 431.995,13.44 C431.665,13.84 431.315,14.16 430.945,14.4 C430.575,14.64 430.2,14.805 429.82,14.895 Z M445.255,17.64 C445.445,17.72 445.63,17.74 445.81,17.7 C446.03,17.64 446.23,17.47 446.41,17.19 C446.59,16.91 446.65,16.66 446.59,16.44 C446.47,15.9 446.35,15.29 446.23,14.61 C446.11,13.93 445.995,13.23 445.885,12.51 C445.775,11.79 445.68,11.07 445.6,10.35 C445.52,9.63 445.46,8.97 445.42,8.37 C445.42,8.21 445.375,8.055 445.285,7.905 C445.195,7.755 445.095,7.625 444.985,7.515 C444.875,7.405 444.755,7.32 444.625,7.26 C444.495,7.2 444.38,7.18 444.28,7.2 C444.14,7.22 443.965,7.305 443.755,7.455 C443.545,7.605 443.44,7.76 443.44,7.92 C443.44,8.2 443.41,8.47 443.35,8.73 C443.29,8.99 443.22,9.24 443.14,9.48 C443,9.96 442.76,10.515 442.42,11.145 C442.08,11.775 441.7,12.36 441.28,12.9 C440.86,13.44 440.43,13.885 439.99,14.235 C439.55,14.585 439.16,14.73 438.82,14.67 C438.62,14.47 438.495,14.13 438.445,13.65 C438.395,13.17 438.395,12.63 438.445,12.03 C438.495,11.43 438.58,10.805 438.7,10.155 C438.82,9.505 438.94,8.91 439.06,8.37 C439.14,8.05 439.055,7.74 438.805,7.44 C438.555,7.14 438.28,6.96 437.98,6.9 C437.82,6.86 437.68,6.905 437.56,7.035 C437.44,7.165 437.36,7.31 437.32,7.47 C437.22,7.85 437.105,8.34 436.975,8.94 C436.845,9.54 436.735,10.175 436.645,10.845 C436.555,11.515 436.505,12.19 436.495,12.87 C436.485,13.55 436.56,14.17 436.72,14.73 C437.14,16.13 437.75,16.88 438.55,16.98 C439.09,17.04 439.615,16.945 440.125,16.695 C440.635,16.445 441.125,16.095 441.595,15.645 C442.065,15.195 442.505,14.695 442.915,14.145 C443.325,13.595 443.68,13.05 443.98,12.51 C444,12.79 444.04,13.135 444.1,13.545 C444.16,13.955 444.225,14.385 444.295,14.835 C444.365,15.285 444.445,15.715 444.535,16.125 C444.625,16.535 444.72,16.88 444.82,17.16 C444.92,17.4 445.065,17.56 445.255,17.64 Z M450.61,17.01 C450.91,17.01 451.145,16.825 451.315,16.455 C451.485,16.085 451.57,15.72 451.57,15.36 C451.61,14.6 451.7,13.825 451.84,13.035 C451.98,12.245 452.25,11.47 452.65,10.71 C452.93,10.17 453.245,9.705 453.595,9.315 C453.945,8.925 454.315,8.585 454.705,8.295 C455.095,8.005 455.485,7.75 455.875,7.53 C456.265,7.31 456.64,7.1 457,6.9 C457.26,6.72 457.415,6.52 457.465,6.3 C457.515,6.08 457.5,5.92 457.42,5.82 C457.34,5.72 457.2,5.65 457,5.61 C456.8,5.57 456.55,5.57 456.25,5.61 C455.55,5.73 454.865,5.97 454.195,6.33 C453.525,6.69 452.925,7.13 452.395,7.65 C451.865,8.17 451.42,8.75 451.06,9.39 C450.7,10.03 450.48,10.69 450.4,11.37 C450.28,10.79 450.16,10.095 450.04,9.285 C449.92,8.475 449.82,7.7 449.74,6.96 C449.7,6.74 449.57,6.58 449.35,6.48 C449.13,6.38 448.9,6.32 448.66,6.3 C448.44,6.28 448.245,6.31 448.075,6.39 C447.905,6.47 447.82,6.65 447.82,6.93 C447.98,8.31 448.17,9.695 448.39,11.085 C448.61,12.475 448.89,13.88 449.23,15.3 C449.31,15.66 449.465,16.035 449.695,16.425 C449.925,16.815 450.23,17.01 450.61,17.01 Z M49.81,52.01 C50.11,52.01 50.345,51.825 50.515,51.455 C50.685,51.085 50.77,50.72 50.77,50.36 C50.81,49.6 50.9,48.825 51.04,48.035 C51.18,47.245 51.45,46.47 51.85,45.71 C52.13,45.17 52.445,44.705 52.795,44.315 C53.145,43.925 53.515,43.585 53.905,43.295 C54.295,43.005 54.685,42.75 55.075,42.53 C55.465,42.31 55.84,42.1 56.2,41.9 C56.46,41.72 56.615,41.52 56.665,41.3 C56.715,41.08 56.7,40.92 56.62,40.82 C56.54,40.72 56.4,40.65 56.2,40.61 C56,40.57 55.75,40.57 55.45,40.61 C54.75,40.73 54.065,40.97 53.395,41.33 C52.725,41.69 52.125,42.13 51.595,42.65 C51.065,43.17 50.62,43.75 50.26,44.39 C49.9,45.03 49.68,45.69 49.6,46.37 C49.48,45.79 49.36,45.095 49.24,44.285 C49.12,43.475 49.02,42.7 48.94,41.96 C48.9,41.74 48.77,41.58 48.55,41.48 C48.33,41.38 48.1,41.32 47.86,41.3 C47.64,41.28 47.445,41.31 47.275,41.39 C47.105,41.47 47.02,41.65 47.02,41.93 C47.18,43.31 47.37,44.695 47.59,46.085 C47.81,47.475 48.09,48.88 48.43,50.3 C48.51,50.66 48.665,51.035 48.895,51.425 C49.125,51.815 49.43,52.01 49.81,52.01 Z M60.31,50.78 C60.99,50.96 61.65,50.99 62.29,50.87 C63.03,50.75 63.7,50.465 64.3,50.015 C64.9,49.565 65.36,49.02 65.68,48.38 C65.76,47.88 65.66,47.58 65.38,47.48 C65.28,47.44 65.13,47.445 64.93,47.495 C64.73,47.545 64.54,47.65 64.36,47.81 C64.18,47.97 63.97,48.13 63.73,48.29 C63.49,48.45 63.225,48.595 62.935,48.725 C62.645,48.855 62.335,48.95 62.005,49.01 C61.675,49.07 61.35,49.08 61.03,49.04 C60.49,48.96 60.04,48.715 59.68,48.305 C59.32,47.895 59.12,47.34 59.08,46.64 C60.12,46.64 61.09,46.515 61.99,46.265 C62.89,46.015 63.73,45.66 64.51,45.2 C64.85,44.98 65.055,44.73 65.125,44.45 C65.195,44.17 65.15,43.84 64.99,43.46 C64.71,42.78 64.22,42.25 63.52,41.87 C62.82,41.49 62.04,41.33 61.18,41.39 C60.46,41.43 59.83,41.59 59.29,41.87 C58.75,42.15 58.3,42.505 57.94,42.935 C57.58,43.365 57.315,43.86 57.145,44.42 C56.975,44.98 56.92,45.57 56.98,46.19 C57.04,46.85 57.19,47.49 57.43,48.11 C57.67,48.73 58.02,49.27 58.48,49.73 C59.02,50.25 59.63,50.6 60.31,50.78 Z M59.02,44.9 C59.04,44.66 59.125,44.445 59.275,44.255 C59.425,44.065 59.595,43.895 59.785,43.745 C59.975,43.595 60.185,43.47 60.415,43.37 C60.645,43.27 60.86,43.2 61.06,43.16 C61.5,43.08 61.935,43.085 62.365,43.175 C62.795,43.265 63.09,43.5 63.25,43.88 C63.03,44.02 62.755,44.15 62.425,44.27 C62.095,44.39 61.735,44.495 61.345,44.585 C60.955,44.675 60.555,44.75 60.145,44.81 C59.735,44.87 59.36,44.9 59.02,44.9 Z M69.895,51.2 C70.445,51.28 71,51.275 71.56,51.185 C72.12,51.095 72.675,50.945 73.225,50.735 C73.775,50.525 74.3,50.28 74.8,50 C75.3,49.74 75.7,49.445 76,49.115 C76.3,48.785 76.35,48.46 76.15,48.14 C75.99,47.88 75.79,47.76 75.55,47.78 C75.31,47.8 75.05,47.87 74.77,47.99 C74.13,48.39 73.445,48.715 72.715,48.965 C71.985,49.215 71.33,49.33 70.75,49.31 C70.03,49.31 69.5,49.07 69.16,48.59 C68.82,48.11 68.7,47.52 68.8,46.82 C68.86,46.44 68.97,46.06 69.13,45.68 C69.29,45.3 69.495,44.955 69.745,44.645 C69.995,44.335 70.285,44.085 70.615,43.895 C70.945,43.705 71.32,43.61 71.74,43.61 C72.2,43.61 72.59,43.82 72.91,44.24 C73.05,44.46 73.22,44.585 73.42,44.615 C73.62,44.645 73.79,44.62 73.93,44.54 C74.11,44.44 74.22,44.305 74.26,44.135 C74.3,43.965 74.3,43.8 74.26,43.64 C74.04,42.92 73.59,42.425 72.91,42.155 C72.23,41.885 71.52,41.81 70.78,41.93 C70.32,42.01 69.9,42.165 69.52,42.395 C69.14,42.625 68.795,42.9 68.485,43.22 C68.175,43.54 67.91,43.895 67.69,44.285 C67.47,44.675 67.3,45.06 67.18,45.44 C66.88,46.46 66.81,47.45 66.97,48.41 C67.13,49.37 67.59,50.11 68.35,50.63 C68.83,50.93 69.345,51.12 69.895,51.2 Z M81.31,52.07 C81.99,52.07 82.61,51.94 83.17,51.68 C83.73,51.42 84.23,51.08 84.67,50.66 C85.11,50.24 85.5,49.76 85.84,49.22 C86.18,48.68 86.46,48.13 86.68,47.57 C86.84,47.07 86.905,46.53 86.875,45.95 C86.845,45.37 86.72,44.805 86.5,44.255 C86.28,43.705 85.965,43.21 85.555,42.77 C85.145,42.33 84.64,42 84.04,41.78 C83.66,41.62 83.34,41.66 83.08,41.9 C82.72,41.7 82.33,41.545 81.91,41.435 C81.49,41.325 81.14,41.27 80.86,41.27 C80.36,41.27 79.915,41.4 79.525,41.66 C79.135,41.92 78.79,42.255 78.49,42.665 C78.19,43.075 77.945,43.545 77.755,44.075 C77.565,44.605 77.43,45.15 77.35,45.71 C77.23,46.47 77.215,47.23 77.305,47.99 C77.395,48.75 77.6,49.43 77.92,50.03 C78.24,50.63 78.68,51.12 79.24,51.5 C79.8,51.88 80.49,52.07 81.31,52.07 Z M81.85,49.895 C81.47,49.985 81.14,49.99 80.86,49.91 C80.4,49.77 80.055,49.535 79.825,49.205 C79.595,48.875 79.44,48.505 79.36,48.095 C79.28,47.685 79.25,47.27 79.27,46.85 C79.29,46.43 79.33,46.07 79.39,45.77 C79.43,45.59 79.51,45.35 79.63,45.05 C79.75,44.75 79.895,44.455 80.065,44.165 C80.235,43.875 80.435,43.62 80.665,43.4 C80.895,43.18 81.13,43.07 81.37,43.07 C81.59,43.07 81.845,43.185 82.135,43.415 C82.425,43.645 82.68,43.83 82.9,43.97 C82.98,44.01 83.09,44.03 83.23,44.03 C83.37,44.03 83.51,43.98 83.65,43.88 C84.23,44.16 84.615,44.615 84.805,45.245 C84.995,45.875 84.99,46.48 84.79,47.06 C84.61,47.58 84.355,48.04 84.025,48.44 C83.695,48.84 83.345,49.16 82.975,49.4 C82.605,49.64 82.23,49.805 81.85,49.895 Z M90.88,51.41 C91.1,51.41 91.29,51.325 91.45,51.155 C91.61,50.985 91.76,50.79 91.9,50.57 C92.1,50.21 92.315,49.795 92.545,49.325 C92.775,48.855 93.015,48.38 93.265,47.9 C93.515,47.42 93.775,46.95 94.045,46.49 C94.315,46.03 94.59,45.61 94.87,45.23 C95.01,45.55 95.155,45.91 95.305,46.31 C95.455,46.71 95.605,47.12 95.755,47.54 C95.905,47.96 96.05,48.37 96.19,48.77 C96.33,49.17 96.46,49.53 96.58,49.85 C96.66,50.07 96.825,50.265 97.075,50.435 C97.325,50.605 97.56,50.69 97.78,50.69 C98,50.69 98.21,50.565 98.41,50.315 C98.61,50.065 98.71,49.68 98.71,49.16 C98.79,48.76 98.915,48.275 99.085,47.705 C99.255,47.135 99.44,46.59 99.64,46.07 C99.84,45.55 100.05,45.105 100.27,44.735 C100.49,44.365 100.7,44.18 100.9,44.18 C100.94,44.2 101.01,44.25 101.11,44.33 C101.21,44.41 101.315,44.51 101.425,44.63 C101.535,44.75 101.635,44.875 101.725,45.005 C101.815,45.135 101.88,45.24 101.92,45.32 C102.04,45.62 102.155,45.965 102.265,46.355 C102.375,46.745 102.47,47.165 102.55,47.615 C102.63,48.065 102.705,48.53 102.775,49.01 C102.845,49.49 102.91,49.96 102.97,50.42 C102.99,50.52 103.03,50.635 103.09,50.765 C103.15,50.895 103.23,51.01 103.33,51.11 C103.43,51.21 103.56,51.275 103.72,51.305 C103.88,51.335 104.07,51.3 104.29,51.2 C104.45,51.12 104.56,51.015 104.62,50.885 C104.68,50.755 104.71,50.56 104.71,50.3 C104.69,50.12 104.665,49.805 104.635,49.355 C104.605,48.905 104.55,48.39 104.47,47.81 C104.39,47.23 104.265,46.62 104.095,45.98 C103.925,45.34 103.7,44.75 103.42,44.21 C103.28,43.95 103.095,43.695 102.865,43.445 C102.635,43.195 102.39,42.98 102.13,42.8 C101.87,42.62 101.615,42.475 101.365,42.365 C101.115,42.255 100.9,42.2 100.72,42.2 C100.58,42.2 100.36,42.265 100.06,42.395 C99.76,42.525 99.48,42.73 99.22,43.01 C99,43.27 98.795,43.57 98.605,43.91 C98.415,44.25 98.245,44.595 98.095,44.945 C97.945,45.295 97.805,45.635 97.675,45.965 C97.545,46.295 97.44,46.59 97.36,46.85 C97.26,46.47 97.135,46.03 96.985,45.53 C96.835,45.03 96.66,44.56 96.46,44.12 C96.26,43.68 96.025,43.305 95.755,42.995 C95.485,42.685 95.19,42.53 94.87,42.53 C94.57,42.53 94.235,42.735 93.865,43.145 C93.495,43.555 93.135,44.055 92.785,44.645 C92.435,45.235 92.1,45.85 91.78,46.49 C91.6733333,46.7033333 91.5722222,46.9055556 91.4766667,47.0966667 L91.2066667,47.6366667 C91.1222222,47.8055556 91.0433333,47.9633333 90.97,48.11 C90.91,47.69 90.845,47.23 90.775,46.73 C90.705,46.23 90.64,45.725 90.58,45.215 C90.52,44.705 90.465,44.215 90.415,43.745 C90.365,43.275 90.33,42.88 90.31,42.56 C90.27,42.22 90.16,41.97 89.98,41.81 C89.8,41.65 89.54,41.6 89.2,41.66 C88.88,41.76 88.665,41.955 88.555,42.245 C88.445,42.535 88.4,42.85 88.42,43.19 C88.52,44.17 88.625,45.175 88.735,46.205 C88.845,47.235 88.98,48.18 89.14,49.04 C89.2,49.32 89.295,49.6 89.425,49.88 C89.555,50.16 89.7,50.41 89.86,50.63 C90.02,50.85 90.19,51.035 90.37,51.185 C90.55,51.335 90.72,51.41 90.88,51.41 Z M108.76,51.41 C108.98,51.41 109.17,51.325 109.33,51.155 C109.49,50.985 109.64,50.79 109.78,50.57 C109.98,50.21 110.195,49.795 110.425,49.325 C110.655,48.855 110.895,48.38 111.145,47.9 C111.395,47.42 111.655,46.95 111.925,46.49 C112.195,46.03 112.47,45.61 112.75,45.23 C112.89,45.55 113.035,45.91 113.185,46.31 C113.335,46.71 113.485,47.12 113.635,47.54 C113.785,47.96 113.93,48.37 114.07,48.77 C114.21,49.17 114.34,49.53 114.46,49.85 C114.54,50.07 114.705,50.265 114.955,50.435 C115.205,50.605 115.44,50.69 115.66,50.69 C115.88,50.69 116.09,50.565 116.29,50.315 C116.49,50.065 116.59,49.68 116.59,49.16 C116.67,48.76 116.795,48.275 116.965,47.705 C117.135,47.135 117.32,46.59 117.52,46.07 C117.72,45.55 117.93,45.105 118.15,44.735 C118.37,44.365 118.58,44.18 118.78,44.18 C118.82,44.2 118.89,44.25 118.99,44.33 C119.09,44.41 119.195,44.51 119.305,44.63 C119.415,44.75 119.515,44.875 119.605,45.005 C119.695,45.135 119.76,45.24 119.8,45.32 C119.92,45.62 120.035,45.965 120.145,46.355 C120.255,46.745 120.35,47.165 120.43,47.615 C120.51,48.065 120.585,48.53 120.655,49.01 C120.725,49.49 120.79,49.96 120.85,50.42 C120.87,50.52 120.91,50.635 120.97,50.765 C121.03,50.895 121.11,51.01 121.21,51.11 C121.31,51.21 121.44,51.275 121.6,51.305 C121.76,51.335 121.95,51.3 122.17,51.2 C122.33,51.12 122.44,51.015 122.5,50.885 C122.56,50.755 122.59,50.56 122.59,50.3 C122.57,50.12 122.545,49.805 122.515,49.355 C122.485,48.905 122.43,48.39 122.35,47.81 C122.27,47.23 122.145,46.62 121.975,45.98 C121.805,45.34 121.58,44.75 121.3,44.21 C121.16,43.95 120.975,43.695 120.745,43.445 C120.515,43.195 120.27,42.98 120.01,42.8 C119.75,42.62 119.495,42.475 119.245,42.365 C118.995,42.255 118.78,42.2 118.6,42.2 C118.46,42.2 118.24,42.265 117.94,42.395 C117.64,42.525 117.36,42.73 117.1,43.01 C116.88,43.27 116.675,43.57 116.485,43.91 C116.295,44.25 116.125,44.595 115.975,44.945 C115.825,45.295 115.685,45.635 115.555,45.965 C115.425,46.295 115.32,46.59 115.24,46.85 C115.14,46.47 115.015,46.03 114.865,45.53 C114.715,45.03 114.54,44.56 114.34,44.12 C114.14,43.68 113.905,43.305 113.635,42.995 C113.365,42.685 113.07,42.53 112.75,42.53 C112.45,42.53 112.115,42.735 111.745,43.145 C111.375,43.555 111.015,44.055 110.665,44.645 C110.315,45.235 109.98,45.85 109.66,46.49 C109.553333,46.7033333 109.452222,46.9055556 109.356667,47.0966667 L109.086667,47.6366667 C109.002222,47.8055556 108.923333,47.9633333 108.85,48.11 C108.79,47.69 108.725,47.23 108.655,46.73 C108.585,46.23 108.52,45.725 108.46,45.215 C108.4,44.705 108.345,44.215 108.295,43.745 C108.245,43.275 108.21,42.88 108.19,42.56 C108.15,42.22 108.04,41.97 107.86,41.81 C107.68,41.65 107.42,41.6 107.08,41.66 C106.76,41.76 106.545,41.955 106.435,42.245 C106.325,42.535 106.28,42.85 106.3,43.19 C106.4,44.17 106.505,45.175 106.615,46.205 C106.725,47.235 106.86,48.18 107.02,49.04 C107.08,49.32 107.175,49.6 107.305,49.88 C107.435,50.16 107.58,50.41 107.74,50.63 C107.9,50.85 108.07,51.035 108.25,51.185 C108.43,51.335 108.6,51.41 108.76,51.41 Z M127.33,50.78 C128.01,50.96 128.67,50.99 129.31,50.87 C130.05,50.75 130.72,50.465 131.32,50.015 C131.92,49.565 132.38,49.02 132.7,48.38 C132.78,47.88 132.68,47.58 132.4,47.48 C132.3,47.44 132.15,47.445 131.95,47.495 C131.75,47.545 131.56,47.65 131.38,47.81 C131.2,47.97 130.99,48.13 130.75,48.29 C130.51,48.45 130.245,48.595 129.955,48.725 C129.665,48.855 129.355,48.95 129.025,49.01 C128.695,49.07 128.37,49.08 128.05,49.04 C127.51,48.96 127.06,48.715 126.7,48.305 C126.34,47.895 126.14,47.34 126.1,46.64 C127.14,46.64 128.11,46.515 129.01,46.265 C129.91,46.015 130.75,45.66 131.53,45.2 C131.87,44.98 132.075,44.73 132.145,44.45 C132.215,44.17 132.17,43.84 132.01,43.46 C131.73,42.78 131.24,42.25 130.54,41.87 C129.84,41.49 129.06,41.33 128.2,41.39 C127.48,41.43 126.85,41.59 126.31,41.87 C125.77,42.15 125.32,42.505 124.96,42.935 C124.6,43.365 124.335,43.86 124.165,44.42 C123.995,44.98 123.94,45.57 124,46.19 C124.06,46.85 124.21,47.49 124.45,48.11 C124.69,48.73 125.04,49.27 125.5,49.73 C126.04,50.25 126.65,50.6 127.33,50.78 Z M126.04,44.9 C126.06,44.66 126.145,44.445 126.295,44.255 C126.445,44.065 126.615,43.895 126.805,43.745 C126.995,43.595 127.205,43.47 127.435,43.37 C127.665,43.27 127.88,43.2 128.08,43.16 C128.52,43.08 128.955,43.085 129.385,43.175 C129.815,43.265 130.11,43.5 130.27,43.88 C130.05,44.02 129.775,44.15 129.445,44.27 C129.115,44.39 128.755,44.495 128.365,44.585 C127.975,44.675 127.575,44.75 127.165,44.81 C126.755,44.87 126.38,44.9 126.04,44.9 Z M135.82,51.35 C136.04,51.43 136.255,51.445 136.465,51.395 C136.675,51.345 136.85,51.25 136.99,51.11 C137.19,50.67 137.405,50.185 137.635,49.655 C137.865,49.125 138.1,48.595 138.34,48.065 C138.58,47.535 138.825,47.015 139.075,46.505 C139.325,45.995 139.57,45.53 139.81,45.11 C140.09,44.59 140.41,44.32 140.77,44.3 C141.07,44.26 141.34,44.47 141.58,44.93 C141.82,45.39 142.035,45.93 142.225,46.55 C142.415,47.17 142.585,47.78 142.735,48.38 C142.885,48.98 143.01,49.4 143.11,49.64 C143.13,49.74 143.21,49.84 143.35,49.94 C143.49,50.04 143.7,50.02 143.98,49.88 C144.58,49.62 144.82,49.22 144.7,48.68 C144.58,48.08 144.43,47.39 144.25,46.61 C144.07,45.83 143.825,45.085 143.515,44.375 C143.205,43.665 142.825,43.07 142.375,42.59 C141.925,42.11 141.37,41.87 140.71,41.87 C140.27,41.87 139.865,42.03 139.495,42.35 C139.125,42.67 138.775,43.075 138.445,43.565 C138.115,44.055 137.81,44.59 137.53,45.17 C137.25,45.75 136.99,46.3 136.75,46.82 C136.71,46.46 136.66,46.08 136.6,45.68 C136.54,45.28 136.47,44.885 136.39,44.495 C136.31,44.105 136.235,43.725 136.165,43.355 C136.095,42.985 136.03,42.65 135.97,42.35 C135.81,41.59 135.38,41.15 134.68,41.03 C134.18,40.97 133.885,41.075 133.795,41.345 C133.705,41.615 133.73,41.98 133.87,42.44 C134.17,43.78 134.415,45.09 134.605,46.37 C134.795,47.65 134.98,49.07 135.16,50.63 C135.16,50.77 135.22,50.91 135.34,51.05 C135.46,51.19 135.62,51.29 135.82,51.35 Z M153.775,51.74 C153.985,51.84 154.21,51.84 154.45,51.74 C154.67,51.64 154.86,51.485 155.02,51.275 C155.18,51.065 155.22,50.67 155.14,50.09 C154.86,47.91 154.545,45.685 154.195,43.415 C153.845,41.145 153.47,38.86 153.07,36.56 C153.01,36.24 152.865,35.98 152.635,35.78 C152.405,35.58 152.14,35.5 151.84,35.54 C151.5,35.58 151.275,35.75 151.165,36.05 C151.055,36.35 151.03,36.68 151.09,37.04 L151.09,37.04 L151.84,41.78 L151.3,41.9 C150.34,42.14 149.52,42.47 148.84,42.89 C148.16,43.31 147.59,43.78 147.13,44.3 C146.05,45.56 145.75,46.96 146.23,48.5 C146.45,49.2 146.815,49.775 147.325,50.225 C147.835,50.675 148.42,51 149.08,51.2 C149.74,51.4 150.43,51.485 151.15,51.455 C151.87,51.425 152.56,51.29 153.22,51.05 L153.22,51.05 L153.34,51.02 L153.37,51.2 C153.43,51.46 153.565,51.64 153.775,51.74 Z M151.27,49.43 C150.77,49.49 150.3,49.475 149.86,49.385 C149.42,49.295 149.04,49.12 148.72,48.86 C148.4,48.6 148.18,48.23 148.06,47.75 C147.94,47.31 147.975,46.88 148.165,46.46 C148.355,46.04 148.63,45.66 148.99,45.32 C149.35,44.98 149.765,44.685 150.235,44.435 C150.705,44.185 151.15,44 151.57,43.88 L151.57,43.88 L152.17,43.73 L153.01,49.01 L152.74,49.1 C152.26,49.26 151.77,49.37 151.27,49.43 Z M157.165,52.46 C157.675,52.8 158.25,52.92 158.89,52.82 C159.23,52.76 159.6,52.65 160,52.49 C160.4,52.33 160.8,52.145 161.2,51.935 C161.6,51.725 161.98,51.505 162.34,51.275 C162.7,51.045 163.02,50.83 163.3,50.63 C163.7,50.85 164.055,50.955 164.365,50.945 C164.675,50.935 164.89,50.75 165.01,50.39 C165.11,50.13 165.095,49.83 164.965,49.49 C164.835,49.15 164.45,48.76 163.81,48.32 C163.83,47.84 163.84,47.3 163.84,46.7 C163.84,46.1 163.825,45.48 163.795,44.84 C163.765,44.2 163.725,43.565 163.675,42.935 C163.625,42.305 163.56,41.71 163.48,41.15 C163.4,40.63 163.17,40.205 162.79,39.875 C162.41,39.545 161.87,39.39 161.17,39.41 C160.69,39.43 160.21,39.54 159.73,39.74 C159.25,39.94 158.78,40.195 158.32,40.505 C157.86,40.815 157.42,41.16 157,41.54 C156.58,41.92 156.2,42.29 155.86,42.65 C155.68,42.89 155.6,43.115 155.62,43.325 C155.64,43.535 155.73,43.72 155.89,43.88 C156.05,44.04 156.245,44.13 156.475,44.15 C156.705,44.17 156.91,44.09 157.09,43.91 C157.67,43.39 158.28,42.9 158.92,42.44 C159.56,41.98 160.12,41.67 160.6,41.51 C160.88,41.41 161.115,41.395 161.305,41.465 C161.495,41.535 161.61,41.72 161.65,42.02 C161.69,42.28 161.725,42.595 161.755,42.965 C161.785,43.335 161.81,43.73 161.83,44.15 C161.85,44.57 161.865,44.985 161.875,45.395 C161.885,45.805 161.89,46.18 161.89,46.52 C161.65,46.28 161.39,46.11 161.11,46.01 C160.83,45.91 160.555,45.855 160.285,45.845 C160.015,45.835 159.755,45.85 159.505,45.89 C159.255,45.93 159.06,45.98 158.92,46.04 C158.36,46.24 157.875,46.52 157.465,46.88 C157.055,47.24 156.73,47.645 156.49,48.095 C156.25,48.545 156.1,49.015 156.04,49.505 C155.98,49.995 156.01,50.47 156.13,50.93 C156.31,51.61 156.655,52.12 157.165,52.46 Z M158.56,50.84 C158.4,50.88 158.255,50.87 158.125,50.81 C157.995,50.75 157.91,50.66 157.87,50.54 C157.77,50.22 157.775,49.895 157.885,49.565 C157.995,49.235 158.165,48.935 158.395,48.665 C158.625,48.395 158.885,48.165 159.175,47.975 C159.465,47.785 159.74,47.66 160,47.6 C160.16,47.58 160.335,47.64 160.525,47.78 C160.715,47.92 160.89,48.085 161.05,48.275 C161.21,48.465 161.35,48.655 161.47,48.845 C161.59,49.035 161.65,49.19 161.65,49.31 C161.29,49.65 160.805,49.965 160.195,50.255 C159.585,50.545 159.04,50.74 158.56,50.84 Z M170.2168,53.4908 L170.41,53.48 C170.85,53.44 171.355,53.315 171.925,53.105 C172.495,52.895 173.06,52.65 173.62,52.37 C174.18,52.09 174.705,51.795 175.195,51.485 C175.685,51.175 176.08,50.9 176.38,50.66 C176.64,50.4 176.82,50.11 176.92,49.79 C177.02,49.47 177.05,49.2 177.01,48.98 C176.97,48.84 176.865,48.75 176.695,48.71 C176.525,48.67 176.34,48.7 176.14,48.8 C175.7,49.02 175.235,49.255 174.745,49.505 C174.255,49.755 173.755,49.995 173.245,50.225 C172.735,50.455 172.225,50.665 171.715,50.855 C171.205,51.045 170.73,51.18 170.29,51.26 C170.27,51.24 170.26,51.09 170.26,50.81 C170.26,50.53 170.27,50.165 170.29,49.715 C170.31,49.265 170.335,48.75 170.365,48.17 C170.395,47.59 170.43,46.97 170.47,46.31 C170.95,46.27 171.42,46.24 171.88,46.22 C172.34,46.2 172.77,46.19 173.17,46.19 C173.37,46.19 173.635,46.145 173.965,46.055 C174.295,45.965 174.48,45.75 174.52,45.41 C174.52,44.99 174.33,44.68 173.95,44.48 C173.57,44.28 173.19,44.19 172.81,44.21 C172.47,44.23 172.115,44.245 171.745,44.255 C171.375,44.265 170.99,44.29 170.59,44.33 C170.65,43.43 170.715,42.55 170.785,41.69 C170.855,40.83 170.93,40.06 171.01,39.38 C171.01,39.14 170.855,38.925 170.545,38.735 C170.235,38.545 169.91,38.46 169.57,38.48 C169.43,38.48 169.3,38.57 169.18,38.75 C169.06,38.93 168.99,39.14 168.97,39.38 C168.91,40.1 168.84,40.9 168.76,41.78 C168.68,42.66 168.61,43.57 168.55,44.51 C167.55,44.61 166.64,44.73 165.82,44.87 C165.48,44.97 165.26,45.12 165.16,45.32 C165.06,45.52 165.01,45.68 165.01,45.8 C165.01,46.14 165.165,46.37 165.475,46.49 C165.785,46.61 166.07,46.67 166.33,46.67 C166.65,46.63 166.985,46.595 167.335,46.565 C167.685,46.535 168.05,46.5 168.43,46.46 C168.39,47.4 168.355,48.29 168.325,49.13 C168.295,49.97 168.3,50.71 168.34,51.35 C168.38,51.99 168.57,52.52 168.91,52.94 C169.25,53.36 169.75,53.54 170.41,53.48 L170.2168,53.4908 Z M177.52,40.79 C177.8,40.93 178.06,40.96 178.3,40.88 C178.88,40.72 179.435,40.6 179.965,40.52 C180.495,40.44 181.01,40.39 181.51,40.37 C181.67,40.37 181.87,40.36 182.11,40.34 C182.35,40.32 182.49,40.21 182.53,40.01 C182.57,39.73 182.495,39.49 182.305,39.29 C182.115,39.09 181.86,38.94 181.54,38.84 C181.32,38.78 181.04,38.745 180.7,38.735 C180.36,38.725 180.005,38.74 179.635,38.78 C179.265,38.82 178.9,38.885 178.54,38.975 C178.18,39.065 177.87,39.17 177.61,39.29 C177.45,39.37 177.31,39.46 177.19,39.56 C177.07,39.66 177.01,39.79 177.01,39.95 C177.07,40.37 177.24,40.65 177.52,40.79 Z M180.85,51.77 C181.17,51.97 181.47,51.98 181.75,51.8 C181.97,51.66 182.075,51.405 182.065,51.035 C182.055,50.665 181.98,50.32 181.84,50 C181.72,49.74 181.62,49.405 181.54,48.995 C181.46,48.585 181.39,48.16 181.33,47.72 C181.27,47.28 181.23,46.84 181.21,46.4 C181.19,45.96 181.18,45.56 181.18,45.2 C181.2,44.74 181.1,44.355 180.88,44.045 C180.66,43.735 180.37,43.57 180.01,43.55 C179.79,43.59 179.61,43.73 179.47,43.97 C179.33,44.21 179.25,44.47 179.23,44.75 C179.23,45.01 179.235,45.4 179.245,45.92 C179.255,46.44 179.29,47 179.35,47.6 C179.41,48.2 179.5,48.805 179.62,49.415 C179.74,50.025 179.91,50.54 180.13,50.96 C180.29,51.3 180.53,51.57 180.85,51.77 Z M188.17,52.07 C188.85,52.07 189.47,51.94 190.03,51.68 C190.59,51.42 191.09,51.08 191.53,50.66 C191.97,50.24 192.36,49.76 192.7,49.22 C193.04,48.68 193.32,48.13 193.54,47.57 C193.7,47.07 193.765,46.53 193.735,45.95 C193.705,45.37 193.58,44.805 193.36,44.255 C193.14,43.705 192.825,43.21 192.415,42.77 C192.005,42.33 191.5,42 190.9,41.78 C190.52,41.62 190.2,41.66 189.94,41.9 C189.58,41.7 189.19,41.545 188.77,41.435 C188.35,41.325 188,41.27 187.72,41.27 C187.22,41.27 186.775,41.4 186.385,41.66 C185.995,41.92 185.65,42.255 185.35,42.665 C185.05,43.075 184.805,43.545 184.615,44.075 C184.425,44.605 184.29,45.15 184.21,45.71 C184.09,46.47 184.075,47.23 184.165,47.99 C184.255,48.75 184.46,49.43 184.78,50.03 C185.1,50.63 185.54,51.12 186.1,51.5 C186.66,51.88 187.35,52.07 188.17,52.07 Z M188.71,49.895 C188.33,49.985 188,49.99 187.72,49.91 C187.26,49.77 186.915,49.535 186.685,49.205 C186.455,48.875 186.3,48.505 186.22,48.095 C186.14,47.685 186.11,47.27 186.13,46.85 C186.15,46.43 186.19,46.07 186.25,45.77 C186.29,45.59 186.37,45.35 186.49,45.05 C186.61,44.75 186.755,44.455 186.925,44.165 C187.095,43.875 187.295,43.62 187.525,43.4 C187.755,43.18 187.99,43.07 188.23,43.07 C188.45,43.07 188.705,43.185 188.995,43.415 C189.285,43.645 189.54,43.83 189.76,43.97 C189.84,44.01 189.95,44.03 190.09,44.03 C190.23,44.03 190.37,43.98 190.51,43.88 C191.09,44.16 191.475,44.615 191.665,45.245 C191.855,45.875 191.85,46.48 191.65,47.06 C191.47,47.58 191.215,48.04 190.885,48.44 C190.555,48.84 190.205,49.16 189.835,49.4 C189.465,49.64 189.09,49.805 188.71,49.895 Z M197.14,51.35 C197.36,51.43 197.575,51.445 197.785,51.395 C197.995,51.345 198.17,51.25 198.31,51.11 C198.51,50.67 198.725,50.185 198.955,49.655 C199.185,49.125 199.42,48.595 199.66,48.065 C199.9,47.535 200.145,47.015 200.395,46.505 C200.645,45.995 200.89,45.53 201.13,45.11 C201.41,44.59 201.73,44.32 202.09,44.3 C202.39,44.26 202.66,44.47 202.9,44.93 C203.14,45.39 203.355,45.93 203.545,46.55 C203.735,47.17 203.905,47.78 204.055,48.38 C204.205,48.98 204.33,49.4 204.43,49.64 C204.45,49.74 204.53,49.84 204.67,49.94 C204.81,50.04 205.02,50.02 205.3,49.88 C205.9,49.62 206.14,49.22 206.02,48.68 C205.9,48.08 205.75,47.39 205.57,46.61 C205.39,45.83 205.145,45.085 204.835,44.375 C204.525,43.665 204.145,43.07 203.695,42.59 C203.245,42.11 202.69,41.87 202.03,41.87 C201.59,41.87 201.185,42.03 200.815,42.35 C200.445,42.67 200.095,43.075 199.765,43.565 C199.435,44.055 199.13,44.59 198.85,45.17 C198.57,45.75 198.31,46.3 198.07,46.82 C198.03,46.46 197.98,46.08 197.92,45.68 C197.86,45.28 197.79,44.885 197.71,44.495 C197.63,44.105 197.555,43.725 197.485,43.355 C197.415,42.985 197.35,42.65 197.29,42.35 C197.13,41.59 196.7,41.15 196,41.03 C195.5,40.97 195.205,41.075 195.115,41.345 C195.025,41.615 195.05,41.98 195.19,42.44 C195.49,43.78 195.735,45.09 195.925,46.37 C196.115,47.65 196.3,49.07 196.48,50.63 C196.48,50.77 196.54,50.91 196.66,51.05 C196.78,51.19 196.94,51.29 197.14,51.35 Z M208.27,54.08 C208.77,54.08 209.38,54.045 210.1,53.975 C210.82,53.905 211.54,53.775 212.26,53.585 C212.98,53.395 213.64,53.13 214.24,52.79 C214.84,52.45 215.25,52.01 215.47,51.47 C215.75,50.77 215.795,50.145 215.605,49.595 C215.415,49.045 215.06,48.54 214.54,48.08 C214.02,47.62 213.38,47.17 212.62,46.73 C211.86,46.29 211.13,45.86 210.43,45.44 C210.01,45.16 209.69,44.88 209.47,44.6 C209.25,44.32 209.17,44.03 209.23,43.73 C209.25,43.57 209.37,43.385 209.59,43.175 C209.81,42.965 210.08,42.775 210.4,42.605 C210.72,42.435 211.07,42.31 211.45,42.23 C211.83,42.15 212.19,42.16 212.53,42.26 C212.69,42.32 212.79,42.45 212.83,42.65 C212.87,42.85 212.91,43.06 212.95,43.28 C212.97,43.46 213.065,43.605 213.235,43.715 C213.405,43.825 213.63,43.86 213.91,43.82 C214.13,43.78 214.285,43.67 214.375,43.49 C214.465,43.31 214.51,43.08 214.51,42.8 C214.41,41.96 214.08,41.325 213.52,40.895 C212.96,40.465 212.25,40.23 211.39,40.19 C210.89,40.19 210.39,40.3 209.89,40.52 C209.39,40.74 208.945,41.035 208.555,41.405 C208.165,41.775 207.85,42.2 207.61,42.68 C207.37,43.16 207.26,43.66 207.28,44.18 C207.36,44.76 207.55,45.245 207.85,45.635 C208.15,46.025 208.51,46.36 208.93,46.64 C209.35,46.92 209.855,47.23 210.445,47.57 C211.035,47.91 211.585,48.26 212.095,48.62 C212.605,48.98 213.015,49.325 213.325,49.655 C213.635,49.985 213.72,50.27 213.58,50.51 C213.42,50.79 213.14,51.02 212.74,51.2 C212.34,51.38 211.89,51.525 211.39,51.635 C210.89,51.745 210.365,51.825 209.815,51.875 C209.265,51.925 208.75,51.95 208.27,51.95 C207.93,51.95 207.6,52.02 207.28,52.16 C206.96,52.3 206.8,52.55 206.8,52.91 C206.8,53.01 206.855,53.125 206.965,53.255 C207.075,53.385 207.205,53.51 207.355,53.63 C207.505,53.75 207.665,53.855 207.835,53.945 C208.005,54.035 208.15,54.08 208.27,54.08 Z M225.595,52.46 C226.105,52.8 226.68,52.92 227.32,52.82 C227.66,52.76 228.03,52.65 228.43,52.49 C228.83,52.33 229.23,52.145 229.63,51.935 C230.03,51.725 230.41,51.505 230.77,51.275 C231.13,51.045 231.45,50.83 231.73,50.63 C232.13,50.85 232.485,50.955 232.795,50.945 C233.105,50.935 233.32,50.75 233.44,50.39 C233.54,50.13 233.525,49.83 233.395,49.49 C233.265,49.15 232.88,48.76 232.24,48.32 C232.26,47.84 232.27,47.3 232.27,46.7 C232.27,46.1 232.255,45.48 232.225,44.84 C232.195,44.2 232.155,43.565 232.105,42.935 C232.055,42.305 231.99,41.71 231.91,41.15 C231.83,40.63 231.6,40.205 231.22,39.875 C230.84,39.545 230.3,39.39 229.6,39.41 C229.12,39.43 228.64,39.54 228.16,39.74 C227.68,39.94 227.21,40.195 226.75,40.505 C226.29,40.815 225.85,41.16 225.43,41.54 C225.01,41.92 224.63,42.29 224.29,42.65 C224.11,42.89 224.03,43.115 224.05,43.325 C224.07,43.535 224.16,43.72 224.32,43.88 C224.48,44.04 224.675,44.13 224.905,44.15 C225.135,44.17 225.34,44.09 225.52,43.91 C226.1,43.39 226.71,42.9 227.35,42.44 C227.99,41.98 228.55,41.67 229.03,41.51 C229.31,41.41 229.545,41.395 229.735,41.465 C229.925,41.535 230.04,41.72 230.08,42.02 C230.12,42.28 230.155,42.595 230.185,42.965 C230.215,43.335 230.24,43.73 230.26,44.15 C230.28,44.57 230.295,44.985 230.305,45.395 C230.315,45.805 230.32,46.18 230.32,46.52 C230.08,46.28 229.82,46.11 229.54,46.01 C229.26,45.91 228.985,45.855 228.715,45.845 C228.445,45.835 228.185,45.85 227.935,45.89 C227.685,45.93 227.49,45.98 227.35,46.04 C226.79,46.24 226.305,46.52 225.895,46.88 C225.485,47.24 225.16,47.645 224.92,48.095 C224.68,48.545 224.53,49.015 224.47,49.505 C224.41,49.995 224.44,50.47 224.56,50.93 C224.74,51.61 225.085,52.12 225.595,52.46 Z M226.99,50.84 C226.83,50.88 226.685,50.87 226.555,50.81 C226.425,50.75 226.34,50.66 226.3,50.54 C226.2,50.22 226.205,49.895 226.315,49.565 C226.425,49.235 226.595,48.935 226.825,48.665 C227.055,48.395 227.315,48.165 227.605,47.975 C227.895,47.785 228.17,47.66 228.43,47.6 C228.59,47.58 228.765,47.64 228.955,47.78 C229.145,47.92 229.32,48.085 229.48,48.275 C229.64,48.465 229.78,48.655 229.9,48.845 C230.02,49.035 230.08,49.19 230.08,49.31 C229.72,49.65 229.235,49.965 228.625,50.255 C228.015,50.545 227.47,50.74 226.99,50.84 Z M236.2,51.35 C236.42,51.43 236.635,51.445 236.845,51.395 C237.055,51.345 237.23,51.25 237.37,51.11 C237.57,50.67 237.785,50.185 238.015,49.655 C238.245,49.125 238.48,48.595 238.72,48.065 C238.96,47.535 239.205,47.015 239.455,46.505 C239.705,45.995 239.95,45.53 240.19,45.11 C240.47,44.59 240.79,44.32 241.15,44.3 C241.45,44.26 241.72,44.47 241.96,44.93 C242.2,45.39 242.415,45.93 242.605,46.55 C242.795,47.17 242.965,47.78 243.115,48.38 C243.265,48.98 243.39,49.4 243.49,49.64 C243.51,49.74 243.59,49.84 243.73,49.94 C243.87,50.04 244.08,50.02 244.36,49.88 C244.96,49.62 245.2,49.22 245.08,48.68 C244.96,48.08 244.81,47.39 244.63,46.61 C244.45,45.83 244.205,45.085 243.895,44.375 C243.585,43.665 243.205,43.07 242.755,42.59 C242.305,42.11 241.75,41.87 241.09,41.87 C240.65,41.87 240.245,42.03 239.875,42.35 C239.505,42.67 239.155,43.075 238.825,43.565 C238.495,44.055 238.19,44.59 237.91,45.17 C237.63,45.75 237.37,46.3 237.13,46.82 C237.09,46.46 237.04,46.08 236.98,45.68 C236.92,45.28 236.85,44.885 236.77,44.495 C236.69,44.105 236.615,43.725 236.545,43.355 C236.475,42.985 236.41,42.65 236.35,42.35 C236.19,41.59 235.76,41.15 235.06,41.03 C234.56,40.97 234.265,41.075 234.175,41.345 C234.085,41.615 234.11,41.98 234.25,42.44 C234.55,43.78 234.795,45.09 234.985,46.37 C235.175,47.65 235.36,49.07 235.54,50.63 C235.54,50.77 235.6,50.91 235.72,51.05 C235.84,51.19 236,51.29 236.2,51.35 Z M254.155,51.74 C254.365,51.84 254.59,51.84 254.83,51.74 C255.05,51.64 255.24,51.485 255.4,51.275 C255.56,51.065 255.6,50.67 255.52,50.09 C255.24,47.91 254.925,45.685 254.575,43.415 C254.225,41.145 253.85,38.86 253.45,36.56 C253.39,36.24 253.245,35.98 253.015,35.78 C252.785,35.58 252.52,35.5 252.22,35.54 C251.88,35.58 251.655,35.75 251.545,36.05 C251.435,36.35 251.41,36.68 251.47,37.04 L251.47,37.04 L252.22,41.78 L251.68,41.9 C250.72,42.14 249.9,42.47 249.22,42.89 C248.54,43.31 247.97,43.78 247.51,44.3 C246.43,45.56 246.13,46.96 246.61,48.5 C246.83,49.2 247.195,49.775 247.705,50.225 C248.215,50.675 248.8,51 249.46,51.2 C250.12,51.4 250.81,51.485 251.53,51.455 C252.25,51.425 252.94,51.29 253.6,51.05 L253.6,51.05 L253.72,51.02 L253.75,51.2 C253.81,51.46 253.945,51.64 254.155,51.74 Z M251.65,49.43 C251.15,49.49 250.68,49.475 250.24,49.385 C249.8,49.295 249.42,49.12 249.1,48.86 C248.78,48.6 248.56,48.23 248.44,47.75 C248.32,47.31 248.355,46.88 248.545,46.46 C248.735,46.04 249.01,45.66 249.37,45.32 C249.73,44.98 250.145,44.685 250.615,44.435 C251.085,44.185 251.53,44 251.95,43.88 L251.95,43.88 L252.55,43.73 L253.39,49.01 L253.12,49.1 C252.64,49.26 252.15,49.37 251.65,49.43 Z M266.59,52.01 C266.89,52.01 267.125,51.825 267.295,51.455 C267.465,51.085 267.55,50.72 267.55,50.36 C267.59,49.6 267.68,48.825 267.82,48.035 C267.96,47.245 268.23,46.47 268.63,45.71 C268.91,45.17 269.225,44.705 269.575,44.315 C269.925,43.925 270.295,43.585 270.685,43.295 C271.075,43.005 271.465,42.75 271.855,42.53 C272.245,42.31 272.62,42.1 272.98,41.9 C273.24,41.72 273.395,41.52 273.445,41.3 C273.495,41.08 273.48,40.92 273.4,40.82 C273.32,40.72 273.18,40.65 272.98,40.61 C272.78,40.57 272.53,40.57 272.23,40.61 C271.53,40.73 270.845,40.97 270.175,41.33 C269.505,41.69 268.905,42.13 268.375,42.65 C267.845,43.17 267.4,43.75 267.04,44.39 C266.68,45.03 266.46,45.69 266.38,46.37 C266.26,45.79 266.14,45.095 266.02,44.285 C265.9,43.475 265.8,42.7 265.72,41.96 C265.68,41.74 265.55,41.58 265.33,41.48 C265.11,41.38 264.88,41.32 264.64,41.3 C264.42,41.28 264.225,41.31 264.055,41.39 C263.885,41.47 263.8,41.65 263.8,41.93 C263.96,43.31 264.15,44.695 264.37,46.085 C264.59,47.475 264.87,48.88 265.21,50.3 C265.29,50.66 265.445,51.035 265.675,51.425 C265.905,51.815 266.21,52.01 266.59,52.01 Z M277.09,50.78 C277.77,50.96 278.43,50.99 279.07,50.87 C279.81,50.75 280.48,50.465 281.08,50.015 C281.68,49.565 282.14,49.02 282.46,48.38 C282.54,47.88 282.44,47.58 282.16,47.48 C282.06,47.44 281.91,47.445 281.71,47.495 C281.51,47.545 281.32,47.65 281.14,47.81 C280.96,47.97 280.75,48.13 280.51,48.29 C280.27,48.45 280.005,48.595 279.715,48.725 C279.425,48.855 279.115,48.95 278.785,49.01 C278.455,49.07 278.13,49.08 277.81,49.04 C277.27,48.96 276.82,48.715 276.46,48.305 C276.1,47.895 275.9,47.34 275.86,46.64 C276.9,46.64 277.87,46.515 278.77,46.265 C279.67,46.015 280.51,45.66 281.29,45.2 C281.63,44.98 281.835,44.73 281.905,44.45 C281.975,44.17 281.93,43.84 281.77,43.46 C281.49,42.78 281,42.25 280.3,41.87 C279.6,41.49 278.82,41.33 277.96,41.39 C277.24,41.43 276.61,41.59 276.07,41.87 C275.53,42.15 275.08,42.505 274.72,42.935 C274.36,43.365 274.095,43.86 273.925,44.42 C273.755,44.98 273.7,45.57 273.76,46.19 C273.82,46.85 273.97,47.49 274.21,48.11 C274.45,48.73 274.8,49.27 275.26,49.73 C275.8,50.25 276.41,50.6 277.09,50.78 Z M275.8,44.9 C275.82,44.66 275.905,44.445 276.055,44.255 C276.205,44.065 276.375,43.895 276.565,43.745 C276.755,43.595 276.965,43.47 277.195,43.37 C277.425,43.27 277.64,43.2 277.84,43.16 C278.28,43.08 278.715,43.085 279.145,43.175 C279.575,43.265 279.87,43.5 280.03,43.88 C279.81,44.02 279.535,44.15 279.205,44.27 C278.875,44.39 278.515,44.495 278.125,44.585 C277.735,44.675 277.335,44.75 276.925,44.81 C276.515,44.87 276.14,44.9 275.8,44.9 Z M293.41,52.1 C293.57,52.1 293.75,52.065 293.95,51.995 C294.15,51.925 294.33,51.78 294.49,51.56 C295.45,50.2 296.28,48.785 296.98,47.315 C297.68,45.845 298.25,44.23 298.69,42.47 C298.75,42.25 298.65,42.04 298.39,41.84 C298.13,41.64 297.82,41.52 297.46,41.48 C297.18,41.46 296.96,41.72 296.8,42.26 C296.64,42.78 296.43,43.37 296.17,44.03 C295.91,44.69 295.63,45.35 295.33,46.01 C295.03,46.67 294.72,47.295 294.4,47.885 C294.08,48.475 293.78,48.95 293.5,49.31 C293.22,48.41 292.935,47.435 292.645,46.385 C292.355,45.335 291.99,44.37 291.55,43.49 C291.45,43.33 291.29,43.205 291.07,43.115 C290.85,43.025 290.68,43.02 290.56,43.1 C290.4,43.2 290.18,43.47 289.9,43.91 C289.62,44.35 289.31,44.865 288.97,45.455 C288.63,46.045 288.275,46.655 287.905,47.285 C287.535,47.915 287.2,48.47 286.9,48.95 C286.76,48.59 286.625,48.18 286.495,47.72 C286.365,47.26 286.235,46.79 286.105,46.31 C285.975,45.83 285.855,45.355 285.745,44.885 C285.635,44.415 285.54,43.98 285.46,43.58 C285.42,43.34 285.26,43.095 284.98,42.845 C284.7,42.595 284.39,42.48 284.05,42.5 C283.77,42.54 283.595,42.71 283.525,43.01 C283.455,43.31 283.45,43.63 283.51,43.97 C283.61,44.47 283.74,45.035 283.9,45.665 C284.06,46.295 284.235,46.925 284.425,47.555 C284.615,48.185 284.82,48.785 285.04,49.355 C285.26,49.925 285.48,50.39 285.7,50.75 C285.82,50.91 285.985,51.08 286.195,51.26 C286.405,51.44 286.64,51.54 286.9,51.56 C287.08,51.58 287.3,51.535 287.56,51.425 C287.82,51.315 288.05,51.11 288.25,50.81 C288.69,50.05 289.09,49.315 289.45,48.605 C289.81,47.895 290.19,47.19 290.59,46.49 C290.71,46.83 290.84,47.205 290.98,47.615 C291.12,48.025 291.255,48.445 291.385,48.875 C291.515,49.305 291.65,49.73 291.79,50.15 C291.93,50.57 292.06,50.95 292.18,51.29 C292.24,51.47 292.39,51.645 292.63,51.815 C292.87,51.985 293.13,52.08 293.41,52.1 Z M301.285,52.46 C301.795,52.8 302.37,52.92 303.01,52.82 C303.35,52.76 303.72,52.65 304.12,52.49 C304.52,52.33 304.92,52.145 305.32,51.935 C305.72,51.725 306.1,51.505 306.46,51.275 C306.82,51.045 307.14,50.83 307.42,50.63 C307.82,50.85 308.175,50.955 308.485,50.945 C308.795,50.935 309.01,50.75 309.13,50.39 C309.23,50.13 309.215,49.83 309.085,49.49 C308.955,49.15 308.57,48.76 307.93,48.32 C307.95,47.84 307.96,47.3 307.96,46.7 C307.96,46.1 307.945,45.48 307.915,44.84 C307.885,44.2 307.845,43.565 307.795,42.935 C307.745,42.305 307.68,41.71 307.6,41.15 C307.52,40.63 307.29,40.205 306.91,39.875 C306.53,39.545 305.99,39.39 305.29,39.41 C304.81,39.43 304.33,39.54 303.85,39.74 C303.37,39.94 302.9,40.195 302.44,40.505 C301.98,40.815 301.54,41.16 301.12,41.54 C300.7,41.92 300.32,42.29 299.98,42.65 C299.8,42.89 299.72,43.115 299.74,43.325 C299.76,43.535 299.85,43.72 300.01,43.88 C300.17,44.04 300.365,44.13 300.595,44.15 C300.825,44.17 301.03,44.09 301.21,43.91 C301.79,43.39 302.4,42.9 303.04,42.44 C303.68,41.98 304.24,41.67 304.72,41.51 C305,41.41 305.235,41.395 305.425,41.465 C305.615,41.535 305.73,41.72 305.77,42.02 C305.81,42.28 305.845,42.595 305.875,42.965 C305.905,43.335 305.93,43.73 305.95,44.15 C305.97,44.57 305.985,44.985 305.995,45.395 C306.005,45.805 306.01,46.18 306.01,46.52 C305.77,46.28 305.51,46.11 305.23,46.01 C304.95,45.91 304.675,45.855 304.405,45.845 C304.135,45.835 303.875,45.85 303.625,45.89 C303.375,45.93 303.18,45.98 303.04,46.04 C302.48,46.24 301.995,46.52 301.585,46.88 C301.175,47.24 300.85,47.645 300.61,48.095 C300.37,48.545 300.22,49.015 300.16,49.505 C300.1,49.995 300.13,50.47 300.25,50.93 C300.43,51.61 300.775,52.12 301.285,52.46 Z M302.68,50.84 C302.52,50.88 302.375,50.87 302.245,50.81 C302.115,50.75 302.03,50.66 301.99,50.54 C301.89,50.22 301.895,49.895 302.005,49.565 C302.115,49.235 302.285,48.935 302.515,48.665 C302.745,48.395 303.005,48.165 303.295,47.975 C303.585,47.785 303.86,47.66 304.12,47.6 C304.28,47.58 304.455,47.64 304.645,47.78 C304.835,47.92 305.01,48.085 305.17,48.275 C305.33,48.465 305.47,48.655 305.59,48.845 C305.71,49.035 305.77,49.19 305.77,49.31 C305.41,49.65 304.925,49.965 304.315,50.255 C303.705,50.545 303.16,50.74 302.68,50.84 Z M312.7,52.01 C313,52.01 313.235,51.825 313.405,51.455 C313.575,51.085 313.66,50.72 313.66,50.36 C313.7,49.6 313.79,48.825 313.93,48.035 C314.07,47.245 314.34,46.47 314.74,45.71 C315.02,45.17 315.335,44.705 315.685,44.315 C316.035,43.925 316.405,43.585 316.795,43.295 C317.185,43.005 317.575,42.75 317.965,42.53 C318.355,42.31 318.73,42.1 319.09,41.9 C319.35,41.72 319.505,41.52 319.555,41.3 C319.605,41.08 319.59,40.92 319.51,40.82 C319.43,40.72 319.29,40.65 319.09,40.61 C318.89,40.57 318.64,40.57 318.34,40.61 C317.64,40.73 316.955,40.97 316.285,41.33 C315.615,41.69 315.015,42.13 314.485,42.65 C313.955,43.17 313.51,43.75 313.15,44.39 C312.79,45.03 312.57,45.69 312.49,46.37 C312.37,45.79 312.25,45.095 312.13,44.285 C312.01,43.475 311.91,42.7 311.83,41.96 C311.79,41.74 311.66,41.58 311.44,41.48 C311.22,41.38 310.99,41.32 310.75,41.3 C310.53,41.28 310.335,41.31 310.165,41.39 C309.995,41.47 309.91,41.65 309.91,41.93 C310.07,43.31 310.26,44.695 310.48,46.085 C310.7,47.475 310.98,48.88 311.32,50.3 C311.4,50.66 311.555,51.035 311.785,51.425 C312.015,51.815 312.32,52.01 312.7,52.01 Z M327.895,51.74 C328.105,51.84 328.33,51.84 328.57,51.74 C328.79,51.64 328.98,51.485 329.14,51.275 C329.3,51.065 329.34,50.67 329.26,50.09 C328.98,47.91 328.665,45.685 328.315,43.415 C327.965,41.145 327.59,38.86 327.19,36.56 C327.13,36.24 326.985,35.98 326.755,35.78 C326.525,35.58 326.26,35.5 325.96,35.54 C325.62,35.58 325.395,35.75 325.285,36.05 C325.175,36.35 325.15,36.68 325.21,37.04 L325.21,37.04 L325.96,41.78 L325.42,41.9 C324.46,42.14 323.64,42.47 322.96,42.89 C322.28,43.31 321.71,43.78 321.25,44.3 C320.17,45.56 319.87,46.96 320.35,48.5 C320.57,49.2 320.935,49.775 321.445,50.225 C321.955,50.675 322.54,51 323.2,51.2 C323.86,51.4 324.55,51.485 325.27,51.455 C325.99,51.425 326.68,51.29 327.34,51.05 L327.34,51.05 L327.46,51.02 L327.49,51.2 C327.55,51.46 327.685,51.64 327.895,51.74 Z M325.39,49.43 C324.89,49.49 324.42,49.475 323.98,49.385 C323.54,49.295 323.16,49.12 322.84,48.86 C322.52,48.6 322.3,48.23 322.18,47.75 C322.06,47.31 322.095,46.88 322.285,46.46 C322.475,46.04 322.75,45.66 323.11,45.32 C323.47,44.98 323.885,44.685 324.355,44.435 C324.825,44.185 325.27,44 325.69,43.88 L325.69,43.88 L326.29,43.73 L327.13,49.01 L326.86,49.1 C326.38,49.26 325.89,49.37 325.39,49.43 Z M331.03,54.08 C331.53,54.08 332.14,54.045 332.86,53.975 C333.58,53.905 334.3,53.775 335.02,53.585 C335.74,53.395 336.4,53.13 337,52.79 C337.6,52.45 338.01,52.01 338.23,51.47 C338.51,50.77 338.555,50.145 338.365,49.595 C338.175,49.045 337.82,48.54 337.3,48.08 C336.78,47.62 336.14,47.17 335.38,46.73 C334.62,46.29 333.89,45.86 333.19,45.44 C332.77,45.16 332.45,44.88 332.23,44.6 C332.01,44.32 331.93,44.03 331.99,43.73 C332.01,43.57 332.13,43.385 332.35,43.175 C332.57,42.965 332.84,42.775 333.16,42.605 C333.48,42.435 333.83,42.31 334.21,42.23 C334.59,42.15 334.95,42.16 335.29,42.26 C335.45,42.32 335.55,42.45 335.59,42.65 C335.63,42.85 335.67,43.06 335.71,43.28 C335.73,43.46 335.825,43.605 335.995,43.715 C336.165,43.825 336.39,43.86 336.67,43.82 C336.89,43.78 337.045,43.67 337.135,43.49 C337.225,43.31 337.27,43.08 337.27,42.8 C337.17,41.96 336.84,41.325 336.28,40.895 C335.72,40.465 335.01,40.23 334.15,40.19 C333.65,40.19 333.15,40.3 332.65,40.52 C332.15,40.74 331.705,41.035 331.315,41.405 C330.925,41.775 330.61,42.2 330.37,42.68 C330.13,43.16 330.02,43.66 330.04,44.18 C330.12,44.76 330.31,45.245 330.61,45.635 C330.91,46.025 331.27,46.36 331.69,46.64 C332.11,46.92 332.615,47.23 333.205,47.57 C333.795,47.91 334.345,48.26 334.855,48.62 C335.365,48.98 335.775,49.325 336.085,49.655 C336.395,49.985 336.48,50.27 336.34,50.51 C336.18,50.79 335.9,51.02 335.5,51.2 C335.1,51.38 334.65,51.525 334.15,51.635 C333.65,51.745 333.125,51.825 332.575,51.875 C332.025,51.925 331.51,51.95 331.03,51.95 C330.69,51.95 330.36,52.02 330.04,52.16 C329.72,52.3 329.56,52.55 329.56,52.91 C329.56,53.01 329.615,53.125 329.725,53.255 C329.835,53.385 329.965,53.51 330.115,53.63 C330.265,53.75 330.425,53.855 330.595,53.945 C330.765,54.035 330.91,54.08 331.03,54.08 Z M340.828047,53.0084375 L340.96,53 C341.66,52.9 341.96,52.49 341.86,51.77 C341.82,51.37 341.66,50.995 341.38,50.645 C341.1,50.295 340.76,50.15 340.36,50.21 C340.04,50.25 339.825,50.44 339.715,50.78 C339.605,51.12 339.58,51.47 339.64,51.83 C339.7,52.17 339.845,52.46 340.075,52.7 C340.305,52.94 340.6,53.04 340.96,53 L340.828047,53.0084375 Z" id="Checkyouraccounttokeeptrackofyourrecommendationsandrewards." fill="#000000"></path>
        </g>
    </g>
</svg>